<svg width="320" height="245" viewBox="0 0 320 245" fill="none" xmlns="http://www.w3.org/2000/svg">
<path d="M185.061 117.061C185.646 116.475 185.646 115.525 185.061 114.939L175.515 105.393C174.929 104.808 173.979 104.808 173.393 105.393C172.808 105.979 172.808 106.929 173.393 107.515L181.879 116L173.393 124.485C172.808 125.071 172.808 126.021 173.393 126.607C173.979 127.192 174.929 127.192 175.515 126.607L185.061 117.061ZM136 117.5H184V114.5H136V117.5Z" fill="#E7E6E6"/>
<rect width="128" height="245" rx="20" fill="#F7F7F7"/>
<rect x="7" y="7" width="114" height="230" rx="15" fill="white"/>
<rect x="0.5" y="0.5" width="127" height="244" rx="20.5" stroke="#4D4D4D"/>
<rect x="7.5" y="7.5" width="113" height="229" rx="11.5" stroke="#4D4D4D"/>
<path d="M35.5 7.5V7.5C36.4306 7.8102 37.1302 8.58591 37.343 9.54349L37.8275 11.724C38.5126 14.8067 41.2468 17 44.4047 17H82.7195C85.7257 17 88.2512 14.7396 88.5831 11.7518L88.8254 9.57147C88.9318 8.61348 89.5856 7.80481 90.5 7.5V7.5" stroke="#4D4D4D"/>
<rect x="50" y="9" width="20" height="2" rx="1" fill="#EBEBEB"/>
<circle cx="76" cy="10" r="2" fill="#EBEBEB"/>
<rect x="47" y="228" width="34" height="2" rx="1" fill="#EBEBEB"/>
<path d="M35 7H90L89 8H36.621L35 7Z" fill="#F7F7F7"/>
<rect x="192" width="128" height="245" rx="20" fill="#F7F7F7"/>
<rect x="199" y="7" width="114" height="230" rx="15" fill="white"/>
<rect x="192.5" y="0.5" width="127" height="244" rx="20.5" stroke="#4D4D4D"/>
<rect x="199.5" y="7.5" width="113" height="229" rx="11.5" stroke="#4D4D4D"/>
<path d="M227.5 7.5V7.5C228.431 7.8102 229.13 8.58591 229.343 9.54349L229.828 11.724C230.513 14.8067 233.247 17 236.405 17H274.719C277.726 17 280.251 14.7396 280.583 11.7518L280.825 9.57147C280.932 8.61348 281.586 7.80481 282.5 7.5V7.5" stroke="#4D4D4D"/>
<rect x="242" y="9" width="20" height="2" rx="1" fill="#EBEBEB"/>
<circle cx="268" cy="10" r="2" fill="#EBEBEB"/>
<rect x="239" y="228" width="34" height="2" rx="1" fill="#EBEBEB"/>
<path d="M227 7H282L281 8H228.621L227 7Z" fill="#F7F7F7"/>
<rect x="21" y="86" width="86" height="10" rx="4" fill="#F6F6F6"/>
<rect x="21" y="103" width="86" height="9" rx="4" fill="#F6F6F6"/>
<rect x="21" y="119" width="86" height="29" rx="4" fill="#F6F6F6"/>
<rect x="21" y="154" width="86" height="9" rx="4" fill="#F6F6F6"/>
<rect x="21" y="170" width="86" height="10" rx="4" fill="#F6F6F6"/>
<rect x="34" y="195" width="59" height="25" rx="4" fill="#003FE0"/>
<path d="M52.6854 203.537C52.6434 203.607 52.5968 203.661 52.5454 203.698C52.4988 203.731 52.4404 203.747 52.3704 203.747C52.2911 203.747 52.1978 203.707 52.0904 203.628C51.9831 203.549 51.8478 203.462 51.6844 203.369C51.5258 203.271 51.3321 203.182 51.1034 203.103C50.8794 203.024 50.6064 202.984 50.2844 202.984C49.9811 202.984 49.7128 203.026 49.4794 203.11C49.2508 203.189 49.0571 203.299 48.8984 203.439C48.7444 203.579 48.6278 203.745 48.5484 203.936C48.4691 204.123 48.4294 204.326 48.4294 204.545C48.4294 204.825 48.4971 205.058 48.6324 205.245C48.7724 205.427 48.9544 205.583 49.1784 205.714C49.4071 205.845 49.6638 205.959 49.9484 206.057C50.2378 206.15 50.5318 206.248 50.8304 206.351C51.1338 206.454 51.4278 206.57 51.7124 206.701C52.0018 206.827 52.2584 206.988 52.4824 207.184C52.7111 207.38 52.8931 207.62 53.0284 207.905C53.1684 208.19 53.2384 208.54 53.2384 208.955C53.2384 209.394 53.1638 209.807 53.0144 210.194C52.8651 210.577 52.6458 210.91 52.3564 211.195C52.0718 211.48 51.7194 211.704 51.2994 211.867C50.8841 212.03 50.4104 212.112 49.8784 212.112C49.2251 212.112 48.6324 211.995 48.1004 211.762C47.5684 211.524 47.1134 211.204 46.7354 210.803L47.1274 210.159C47.1648 210.108 47.2091 210.066 47.2604 210.033C47.3164 209.996 47.3771 209.977 47.4424 209.977C47.5031 209.977 47.5708 210.003 47.6454 210.054C47.7248 210.101 47.8134 210.161 47.9114 210.236C48.0094 210.311 48.1214 210.392 48.2474 210.481C48.3734 210.57 48.5158 210.651 48.6744 210.726C48.8378 210.801 49.0221 210.864 49.2274 210.915C49.4328 210.962 49.6638 210.985 49.9204 210.985C50.2424 210.985 50.5294 210.941 50.7814 210.852C51.0334 210.763 51.2458 210.64 51.4184 210.481C51.5958 210.318 51.7311 210.124 51.8244 209.9C51.9178 209.676 51.9644 209.426 51.9644 209.151C51.9644 208.848 51.8944 208.6 51.7544 208.409C51.6191 208.213 51.4394 208.05 51.2154 207.919C50.9914 207.788 50.7348 207.679 50.4454 207.59C50.1561 207.497 49.8621 207.403 49.5634 207.31C49.2648 207.212 48.9708 207.1 48.6814 206.974C48.3921 206.848 48.1354 206.685 47.9114 206.484C47.6874 206.283 47.5054 206.034 47.3654 205.735C47.2301 205.432 47.1624 205.058 47.1624 204.615C47.1624 204.26 47.2301 203.917 47.3654 203.586C47.5054 203.255 47.7061 202.961 47.9674 202.704C48.2334 202.447 48.5578 202.242 48.9404 202.088C49.3278 201.934 49.7711 201.857 50.2704 201.857C50.8304 201.857 51.3391 201.946 51.7964 202.123C52.2584 202.3 52.6644 202.557 53.0144 202.893L52.6854 203.537ZM55.992 205.854C56.2953 205.532 56.6313 205.275 57 205.084C57.3686 204.893 57.7933 204.797 58.274 204.797C58.6613 204.797 59.002 204.862 59.296 204.993C59.5946 205.119 59.842 205.301 60.038 205.539C60.2386 205.772 60.3903 206.055 60.493 206.386C60.5956 206.717 60.647 207.084 60.647 207.485V212H59.394V207.485C59.394 206.948 59.2703 206.533 59.023 206.239C58.7803 205.94 58.4093 205.791 57.91 205.791C57.5413 205.791 57.196 205.88 56.874 206.057C56.5566 206.234 56.2626 206.475 55.992 206.778V212H54.739V201.689H55.992V205.854ZM66.3886 208.808C65.8146 208.827 65.3246 208.873 64.9186 208.948C64.5173 209.018 64.1883 209.111 63.9316 209.228C63.6796 209.345 63.4953 209.482 63.3786 209.641C63.2666 209.8 63.2106 209.977 63.2106 210.173C63.2106 210.36 63.2409 210.521 63.3016 210.656C63.3623 210.791 63.4439 210.903 63.5466 210.992C63.6539 211.076 63.7776 211.139 63.9176 211.181C64.0623 211.218 64.2163 211.237 64.3796 211.237C64.5989 211.237 64.7996 211.216 64.9816 211.174C65.1636 211.127 65.3339 211.062 65.4926 210.978C65.6559 210.894 65.8099 210.794 65.9546 210.677C66.1039 210.56 66.2486 210.427 66.3886 210.278V208.808ZM62.3636 205.91C62.7556 205.532 63.1779 205.25 63.6306 205.063C64.0833 204.876 64.5849 204.783 65.1356 204.783C65.5323 204.783 65.8846 204.848 66.1926 204.979C66.5006 205.11 66.7596 205.292 66.9696 205.525C67.1796 205.758 67.3383 206.041 67.4456 206.372C67.5529 206.703 67.6066 207.067 67.6066 207.464V212H67.0536C66.9323 212 66.8389 211.981 66.7736 211.944C66.7083 211.902 66.6569 211.823 66.6196 211.706L66.4796 211.034C66.2929 211.207 66.1109 211.361 65.9336 211.496C65.7563 211.627 65.5696 211.739 65.3736 211.832C65.1776 211.921 64.9676 211.988 64.7436 212.035C64.5243 212.086 64.2793 212.112 64.0086 212.112C63.7333 212.112 63.4743 212.075 63.2316 212C62.9889 211.921 62.7766 211.804 62.5946 211.65C62.4173 211.496 62.2749 211.302 62.1676 211.069C62.0649 210.831 62.0136 210.551 62.0136 210.229C62.0136 209.949 62.0906 209.681 62.2446 209.424C62.3986 209.163 62.6483 208.932 62.9936 208.731C63.3389 208.53 63.7893 208.367 64.3446 208.241C64.8999 208.11 65.5813 208.036 66.3886 208.017V207.464C66.3886 206.913 66.2696 206.498 66.0316 206.218C65.7936 205.933 65.4459 205.791 64.9886 205.791C64.6806 205.791 64.4216 205.831 64.2116 205.91C64.0063 205.985 63.8266 206.071 63.6726 206.169C63.5233 206.262 63.3926 206.349 63.2806 206.428C63.1733 206.503 63.0659 206.54 62.9586 206.54C62.8746 206.54 62.8023 206.519 62.7416 206.477C62.6809 206.43 62.6296 206.374 62.5876 206.309L62.3636 205.91ZM70.6876 206.33C70.9116 205.845 71.1869 205.467 71.5136 205.196C71.8402 204.921 72.2392 204.783 72.7106 204.783C72.8599 204.783 73.0022 204.799 73.1376 204.832C73.2776 204.865 73.4012 204.916 73.5086 204.986L73.4176 205.917C73.3896 206.034 73.3196 206.092 73.2076 206.092C73.1422 206.092 73.0466 206.078 72.9206 206.05C72.7946 206.022 72.6522 206.008 72.4936 206.008C72.2696 206.008 72.0689 206.041 71.8916 206.106C71.7189 206.171 71.5626 206.269 71.4226 206.4C71.2872 206.526 71.1636 206.685 71.0516 206.876C70.9442 207.063 70.8462 207.277 70.7576 207.52V212H69.5046V204.909H70.2186C70.3539 204.909 70.4472 204.935 70.4986 204.986C70.5499 205.037 70.5849 205.126 70.6036 205.252L70.6876 206.33ZM79.0631 207.681C79.0631 207.392 79.0211 207.128 78.9371 206.89C78.8577 206.647 78.7387 206.44 78.5801 206.267C78.4261 206.09 78.2371 205.954 78.0131 205.861C77.7891 205.763 77.5347 205.714 77.2501 205.714C76.6527 205.714 76.1791 205.889 75.8291 206.239C75.4837 206.584 75.2691 207.065 75.1851 207.681H79.0631ZM80.0711 211.006C79.9171 211.193 79.7327 211.356 79.5181 211.496C79.3034 211.631 79.0724 211.743 78.8251 211.832C78.5824 211.921 78.3304 211.986 78.0691 212.028C77.8077 212.075 77.5487 212.098 77.2921 212.098C76.8021 212.098 76.3494 212.016 75.9341 211.853C75.5234 211.685 75.1664 211.442 74.8631 211.125C74.5644 210.803 74.3311 210.406 74.1631 209.935C73.9951 209.464 73.9111 208.922 73.9111 208.311C73.9111 207.816 73.9857 207.354 74.1351 206.925C74.2891 206.496 74.5084 206.125 74.7931 205.812C75.0777 205.495 75.4254 205.247 75.8361 205.07C76.2467 204.888 76.7087 204.797 77.2221 204.797C77.6467 204.797 78.0387 204.869 78.3981 205.014C78.7621 205.154 79.0747 205.359 79.3361 205.63C79.6021 205.896 79.8097 206.227 79.9591 206.624C80.1084 207.016 80.1831 207.464 80.1831 207.968C80.1831 208.164 80.1621 208.295 80.1201 208.36C80.0781 208.425 79.9987 208.458 79.8821 208.458H75.1431C75.1571 208.906 75.2177 209.296 75.3251 209.627C75.4371 209.958 75.5911 210.236 75.7871 210.46C75.9831 210.679 76.2164 210.845 76.4871 210.957C76.7577 211.064 77.0611 211.118 77.3971 211.118C77.7097 211.118 77.9781 211.083 78.2021 211.013C78.4307 210.938 78.6267 210.859 78.7901 210.775C78.9534 210.691 79.0887 210.614 79.1961 210.544C79.3081 210.469 79.4037 210.432 79.4831 210.432C79.5857 210.432 79.6651 210.472 79.7211 210.551L80.0711 211.006Z" fill="white"/>
<path d="M239.773 144.804V162H237.445V154.176H228.169V162H225.841V144.804H228.169V152.472H237.445V144.804H239.773ZM245.733 149.844V162H243.597V149.844H245.733ZM246.189 146.028C246.189 146.236 246.145 146.432 246.057 146.616C245.977 146.792 245.865 146.952 245.721 147.096C245.585 147.232 245.421 147.34 245.229 147.42C245.045 147.5 244.849 147.54 244.641 147.54C244.433 147.54 244.237 147.5 244.053 147.42C243.877 147.34 243.721 147.232 243.585 147.096C243.449 146.952 243.341 146.792 243.261 146.616C243.181 146.432 243.141 146.236 243.141 146.028C243.141 145.82 243.181 145.624 243.261 145.44C243.341 145.248 243.449 145.084 243.585 144.948C243.721 144.804 243.877 144.692 244.053 144.612C244.237 144.532 244.433 144.492 244.641 144.492C244.849 144.492 245.045 144.532 245.229 144.612C245.421 144.692 245.585 144.804 245.721 144.948C245.865 145.084 245.977 145.248 246.057 145.44C246.145 145.624 246.189 145.82 246.189 146.028ZM251.271 152.28C251.655 151.448 252.127 150.8 252.687 150.336C253.247 149.864 253.931 149.628 254.739 149.628C254.995 149.628 255.239 149.656 255.471 149.712C255.711 149.768 255.923 149.856 256.107 149.976L255.951 151.572C255.903 151.772 255.783 151.872 255.591 151.872C255.479 151.872 255.315 151.848 255.099 151.8C254.883 151.752 254.639 151.728 254.367 151.728C253.983 151.728 253.639 151.784 253.335 151.896C253.039 152.008 252.771 152.176 252.531 152.4C252.299 152.616 252.087 152.888 251.895 153.216C251.711 153.536 251.543 153.904 251.391 154.32V162H249.243V149.844H250.467C250.699 149.844 250.859 149.888 250.947 149.976C251.035 150.064 251.095 150.216 251.127 150.432L251.271 152.28ZM265.629 154.596C265.629 154.1 265.557 153.648 265.413 153.24C265.277 152.824 265.073 152.468 264.801 152.172C264.537 151.868 264.213 151.636 263.829 151.476C263.445 151.308 263.009 151.224 262.521 151.224C261.497 151.224 260.685 151.524 260.085 152.124C259.493 152.716 259.125 153.54 258.981 154.596H265.629ZM267.357 160.296C267.093 160.616 266.777 160.896 266.409 161.136C266.041 161.368 265.645 161.56 265.221 161.712C264.805 161.864 264.373 161.976 263.925 162.048C263.477 162.128 263.033 162.168 262.593 162.168C261.753 162.168 260.977 162.028 260.265 161.748C259.561 161.46 258.949 161.044 258.429 160.5C257.917 159.948 257.517 159.268 257.229 158.46C256.941 157.652 256.797 156.724 256.797 155.676C256.797 154.828 256.925 154.036 257.181 153.3C257.445 152.564 257.821 151.928 258.309 151.392C258.797 150.848 259.393 150.424 260.097 150.12C260.801 149.808 261.593 149.652 262.473 149.652C263.201 149.652 263.873 149.776 264.489 150.024C265.113 150.264 265.649 150.616 266.097 151.08C266.553 151.536 266.909 152.104 267.165 152.784C267.421 153.456 267.549 154.224 267.549 155.088C267.549 155.424 267.513 155.648 267.441 155.76C267.369 155.872 267.233 155.928 267.033 155.928H258.909C258.933 156.696 259.037 157.364 259.221 157.932C259.413 158.5 259.677 158.976 260.013 159.36C260.349 159.736 260.749 160.02 261.213 160.212C261.677 160.396 262.197 160.488 262.773 160.488C263.309 160.488 263.769 160.428 264.153 160.308C264.545 160.18 264.881 160.044 265.161 159.9C265.441 159.756 265.673 159.624 265.857 159.504C266.049 159.376 266.213 159.312 266.349 159.312C266.525 159.312 266.661 159.38 266.757 159.516L267.357 160.296ZM278.092 152.736C277.692 152.2 277.26 151.828 276.796 151.62C276.332 151.404 275.812 151.296 275.236 151.296C274.108 151.296 273.24 151.7 272.632 152.508C272.024 153.316 271.72 154.468 271.72 155.964C271.72 156.756 271.788 157.436 271.924 158.004C272.06 158.564 272.26 159.028 272.524 159.396C272.788 159.756 273.112 160.02 273.496 160.188C273.88 160.356 274.316 160.44 274.804 160.44C275.508 160.44 276.12 160.28 276.64 159.96C277.168 159.64 277.652 159.188 278.092 158.604V152.736ZM280.228 144.324V162H278.956C278.652 162 278.46 161.852 278.38 161.556L278.188 160.08C277.668 160.704 277.076 161.208 276.412 161.592C275.748 161.976 274.98 162.168 274.108 162.168C273.412 162.168 272.78 162.036 272.212 161.772C271.644 161.5 271.16 161.104 270.76 160.584C270.36 160.064 270.052 159.416 269.836 158.64C269.62 157.864 269.512 156.972 269.512 155.964C269.512 155.068 269.632 154.236 269.872 153.468C270.112 152.692 270.456 152.02 270.904 151.452C271.352 150.884 271.9 150.44 272.548 150.12C273.204 149.792 273.94 149.628 274.756 149.628C275.5 149.628 276.136 149.756 276.664 150.012C277.2 150.26 277.676 150.608 278.092 151.056V144.324H280.228ZM286.17 144.804V151.668C286.17 152.028 286.162 152.38 286.146 152.724C286.13 153.068 286.11 153.416 286.086 153.768C286.062 154.112 286.03 154.468 285.99 154.836C285.958 155.196 285.918 155.584 285.87 156H284.43C284.382 155.584 284.338 155.196 284.298 154.836C284.266 154.468 284.238 154.112 284.214 153.768C284.19 153.416 284.17 153.068 284.154 152.724C284.138 152.38 284.13 152.028 284.13 151.668V144.804H286.17ZM283.614 160.68C283.614 160.472 283.65 160.276 283.722 160.092C283.802 159.908 283.91 159.748 284.046 159.612C284.182 159.476 284.338 159.368 284.514 159.288C284.698 159.208 284.898 159.168 285.114 159.168C285.322 159.168 285.514 159.208 285.69 159.288C285.874 159.368 286.034 159.476 286.17 159.612C286.306 159.748 286.414 159.908 286.494 160.092C286.574 160.276 286.614 160.472 286.614 160.68C286.614 160.896 286.574 161.096 286.494 161.28C286.414 161.456 286.306 161.612 286.17 161.748C286.034 161.884 285.874 161.988 285.69 162.06C285.514 162.14 285.322 162.18 285.114 162.18C284.898 162.18 284.698 162.14 284.514 162.06C284.338 161.988 284.182 161.884 284.046 161.748C283.91 161.612 283.802 161.456 283.722 161.28C283.65 161.096 283.614 160.896 283.614 160.68Z" fill="#79747E"/>
<path d="M227 175.25C241.611 175.25 256.223 175.299 270.833 175.236C275.861 175.215 280.89 175 285.917 175C287.642 175 284.399 175.94 284.347 175.958C271.382 180.663 256.166 181.172 244.694 189.472C243.579 190.279 241.549 191.848 242.417 192.917C243.915 194.762 250.069 193.205 251.694 192.958C255.721 192.348 259.717 191.576 263.75 191" stroke="#FFCB25" stroke-width="4" stroke-linecap="round"/>
<path d="M28.9291 44.088C29.3771 44.088 29.7717 44.0347 30.1131 43.928C30.4597 43.816 30.7477 43.6613 30.9771 43.464C31.2117 43.2613 31.3877 43.0213 31.5051 42.744C31.6224 42.4667 31.6811 42.16 31.6811 41.824C31.6811 41.1413 31.4571 40.6267 31.0091 40.28C30.5611 39.9333 29.8891 39.76 28.9931 39.76H27.2971V44.088H28.9291ZM34.2251 50H32.8491C32.5664 50 32.3584 49.8907 32.2251 49.672L29.2491 45.576C29.1584 45.448 29.0597 45.3573 28.9531 45.304C28.8517 45.2453 28.6917 45.216 28.4731 45.216H27.2971V50H25.7531V38.536H28.9931C29.7184 38.536 30.3451 38.6107 30.8731 38.76C31.4011 38.904 31.8357 39.1147 32.1771 39.392C32.5237 39.6693 32.7797 40.0053 32.9451 40.4C33.1104 40.7893 33.1931 41.2267 33.1931 41.712C33.1931 42.1173 33.1291 42.496 33.0011 42.848C32.8731 43.2 32.6864 43.5173 32.4411 43.8C32.2011 44.0773 31.9051 44.3147 31.5531 44.512C31.2064 44.7093 30.8117 44.8587 30.3691 44.96C30.5664 45.072 30.7371 45.2347 30.8811 45.448L34.2251 50ZM40.3567 45.064C40.3567 44.7333 40.3087 44.432 40.2127 44.16C40.122 43.8827 39.986 43.6453 39.8047 43.448C39.6287 43.2453 39.4127 43.0907 39.1567 42.984C38.9007 42.872 38.61 42.816 38.2847 42.816C37.602 42.816 37.0607 43.016 36.6607 43.416C36.266 43.8107 36.0207 44.36 35.9247 45.064H40.3567ZM41.5087 48.864C41.3327 49.0773 41.122 49.264 40.8767 49.424C40.6314 49.5787 40.3674 49.7067 40.0847 49.808C39.8074 49.9093 39.5194 49.984 39.2207 50.032C38.922 50.0853 38.626 50.112 38.3327 50.112C37.7727 50.112 37.2554 50.0187 36.7807 49.832C36.3114 49.64 35.9034 49.3627 35.5567 49C35.2154 48.632 34.9487 48.1787 34.7567 47.64C34.5647 47.1013 34.4687 46.4827 34.4687 45.784C34.4687 45.2187 34.554 44.6907 34.7247 44.2C34.9007 43.7093 35.1514 43.2853 35.4767 42.928C35.802 42.5653 36.1994 42.2827 36.6687 42.08C37.138 41.872 37.666 41.768 38.2527 41.768C38.738 41.768 39.186 41.8507 39.5967 42.016C40.0127 42.176 40.37 42.4107 40.6687 42.72C40.9727 43.024 41.21 43.4027 41.3807 43.856C41.5514 44.304 41.6367 44.816 41.6367 45.392C41.6367 45.616 41.6127 45.7653 41.5647 45.84C41.5167 45.9147 41.426 45.952 41.2927 45.952H35.8767C35.8927 46.464 35.962 46.9093 36.0847 47.288C36.2127 47.6667 36.3887 47.984 36.6127 48.24C36.8367 48.4907 37.1034 48.68 37.4127 48.808C37.722 48.9307 38.0687 48.992 38.4527 48.992C38.81 48.992 39.1167 48.952 39.3727 48.872C39.634 48.7867 39.858 48.696 40.0447 48.6C40.2314 48.504 40.386 48.416 40.5087 48.336C40.6367 48.2507 40.746 48.208 40.8367 48.208C40.954 48.208 41.0447 48.2533 41.1087 48.344L41.5087 48.864ZM48.1058 43.232C48.0418 43.3493 47.9431 43.408 47.8098 43.408C47.7298 43.408 47.6391 43.3787 47.5378 43.32C47.4365 43.2613 47.3111 43.1973 47.1618 43.128C47.0178 43.0533 46.8445 42.9867 46.6418 42.928C46.4391 42.864 46.1991 42.832 45.9218 42.832C45.6818 42.832 45.4658 42.864 45.2738 42.928C45.0818 42.9867 44.9165 43.0693 44.7778 43.176C44.6445 43.2827 44.5405 43.408 44.4658 43.552C44.3965 43.6907 44.3618 43.8427 44.3618 44.008C44.3618 44.216 44.4205 44.3893 44.5378 44.528C44.6605 44.6667 44.8205 44.7867 45.0178 44.888C45.2151 44.9893 45.4391 45.08 45.6898 45.16C45.9405 45.2347 46.1965 45.3173 46.4578 45.408C46.7245 45.4933 46.9831 45.5893 47.2338 45.696C47.4845 45.8027 47.7085 45.936 47.9058 46.096C48.1031 46.256 48.2605 46.4533 48.3778 46.688C48.5005 46.9173 48.5618 47.1947 48.5618 47.52C48.5618 47.8933 48.4951 48.24 48.3618 48.56C48.2285 48.8747 48.0311 49.1493 47.7698 49.384C47.5085 49.6133 47.1885 49.7947 46.8098 49.928C46.4311 50.0613 45.9938 50.128 45.4978 50.128C44.9325 50.128 44.4205 50.0373 43.9618 49.856C43.5031 49.6693 43.1138 49.432 42.7938 49.144L43.1298 48.6C43.1725 48.5307 43.2231 48.4773 43.2818 48.44C43.3405 48.4027 43.4151 48.384 43.5058 48.384C43.6018 48.384 43.7031 48.4213 43.8098 48.496C43.9165 48.5707 44.0445 48.6533 44.1938 48.744C44.3485 48.8347 44.5351 48.9173 44.7538 48.992C44.9725 49.0667 45.2445 49.104 45.5698 49.104C45.8471 49.104 46.0898 49.0693 46.2978 49C46.5058 48.9253 46.6791 48.8267 46.8178 48.704C46.9565 48.5813 47.0578 48.44 47.1218 48.28C47.1911 48.12 47.2258 47.9493 47.2258 47.768C47.2258 47.544 47.1645 47.36 47.0418 47.216C46.9245 47.0667 46.7671 46.9413 46.5698 46.84C46.3725 46.7333 46.1458 46.6427 45.8898 46.568C45.6391 46.488 45.3805 46.4053 45.1138 46.32C44.8525 46.2347 44.5938 46.1387 44.3378 46.032C44.0871 45.92 43.8631 45.7813 43.6658 45.616C43.4685 45.4507 43.3085 45.248 43.1858 45.008C43.0685 44.7627 43.0098 44.4667 43.0098 44.12C43.0098 43.8107 43.0738 43.5147 43.2018 43.232C43.3298 42.944 43.5165 42.6933 43.7618 42.48C44.0071 42.2613 44.3085 42.088 44.6658 41.96C45.0231 41.832 45.4311 41.768 45.8898 41.768C46.4231 41.768 46.9005 41.8533 47.3218 42.024C47.7485 42.1893 48.1165 42.4187 48.4258 42.712L48.1058 43.232ZM56.9717 41.896V50H56.1237C55.921 50 55.793 49.9013 55.7397 49.704L55.6277 48.832C55.2757 49.2213 54.881 49.536 54.4437 49.776C54.0064 50.0107 53.505 50.128 52.9397 50.128C52.497 50.128 52.105 50.056 51.7637 49.912C51.4277 49.7627 51.145 49.5547 50.9157 49.288C50.6864 49.0213 50.513 48.6987 50.3957 48.32C50.2837 47.9413 50.2277 47.5227 50.2277 47.064V41.896H51.6517V47.064C51.6517 47.6773 51.7904 48.152 52.0677 48.488C52.3504 48.824 52.7797 48.992 53.3557 48.992C53.777 48.992 54.169 48.8933 54.5317 48.696C54.8997 48.4933 55.2384 48.216 55.5477 47.864V41.896H56.9717ZM59.2296 50V41.896H60.0856C60.2882 41.896 60.4136 41.9947 60.4616 42.192L60.5656 43.024C60.8642 42.656 61.2002 42.3547 61.5736 42.12C61.9469 41.8853 62.3789 41.768 62.8696 41.768C63.4136 41.768 63.8536 41.92 64.1896 42.224C64.5309 42.528 64.7762 42.9387 64.9256 43.456C65.0429 43.1627 65.1922 42.9093 65.3736 42.696C65.5602 42.4827 65.7682 42.3067 65.9976 42.168C66.2269 42.0293 66.4696 41.928 66.7256 41.864C66.9869 41.8 67.2509 41.768 67.5176 41.768C67.9442 41.768 68.3229 41.8373 68.6536 41.976C68.9896 42.1093 69.2722 42.3067 69.5016 42.568C69.7362 42.8293 69.9149 43.152 70.0376 43.536C70.1602 43.9147 70.2216 44.3493 70.2216 44.84V50H68.7896V44.84C68.7896 44.2053 68.6509 43.7253 68.3736 43.4C68.0962 43.0693 67.6962 42.904 67.1736 42.904C66.9389 42.904 66.7149 42.9467 66.5016 43.032C66.2936 43.112 66.1096 43.232 65.9496 43.392C65.7896 43.552 65.6616 43.7547 65.5656 44C65.4749 44.24 65.4296 44.52 65.4296 44.84V50H63.9976V44.84C63.9976 44.1893 63.8669 43.704 63.6056 43.384C63.3442 43.064 62.9629 42.904 62.4616 42.904C62.1096 42.904 61.7842 43 61.4856 43.192C61.1869 43.3787 60.9122 43.6347 60.6616 43.96V50H59.2296ZM77.8098 45.064C77.8098 44.7333 77.7618 44.432 77.6658 44.16C77.5751 43.8827 77.4391 43.6453 77.2578 43.448C77.0818 43.2453 76.8658 43.0907 76.6098 42.984C76.3538 42.872 76.0631 42.816 75.7378 42.816C75.0551 42.816 74.5138 43.016 74.1138 43.416C73.7191 43.8107 73.4738 44.36 73.3778 45.064H77.8098ZM78.9618 48.864C78.7858 49.0773 78.5751 49.264 78.3298 49.424C78.0845 49.5787 77.8205 49.7067 77.5378 49.808C77.2605 49.9093 76.9725 49.984 76.6738 50.032C76.3751 50.0853 76.0791 50.112 75.7858 50.112C75.2258 50.112 74.7085 50.0187 74.2338 49.832C73.7645 49.64 73.3565 49.3627 73.0098 49C72.6685 48.632 72.4018 48.1787 72.2098 47.64C72.0178 47.1013 71.9218 46.4827 71.9218 45.784C71.9218 45.2187 72.0071 44.6907 72.1778 44.2C72.3538 43.7093 72.6045 43.2853 72.9298 42.928C73.2551 42.5653 73.6525 42.2827 74.1218 42.08C74.5911 41.872 75.1191 41.768 75.7058 41.768C76.1911 41.768 76.6391 41.8507 77.0498 42.016C77.4658 42.176 77.8231 42.4107 78.1218 42.72C78.4258 43.024 78.6631 43.4027 78.8338 43.856C79.0045 44.304 79.0898 44.816 79.0898 45.392C79.0898 45.616 79.0658 45.7653 79.0178 45.84C78.9698 45.9147 78.8791 45.952 78.7458 45.952H73.3298C73.3458 46.464 73.4151 46.9093 73.5378 47.288C73.6658 47.6667 73.8418 47.984 74.0658 48.24C74.2898 48.4907 74.5565 48.68 74.8658 48.808C75.1751 48.9307 75.5218 48.992 75.9058 48.992C76.2631 48.992 76.5698 48.952 76.8258 48.872C77.0871 48.7867 77.3111 48.696 77.4978 48.6C77.6845 48.504 77.8391 48.416 77.9618 48.336C78.0898 48.2507 78.1991 48.208 78.2898 48.208C78.4071 48.208 78.4978 48.2533 78.5618 48.344L78.9618 48.864Z" fill="#79747E"/>
<path d="M41.5342 71L39.2314 64.5576H40.6421L42.2725 69.3257L43.8501 64.5576H45.23L42.9229 71H41.5342ZM45.8936 71V64.5576H50.6704V65.6475H47.1943V67.0757H50.4287V68.1611H47.1943V69.9146H50.7935V71H45.8936ZM51.9009 71V64.5576H54.6387C55.3271 64.5576 55.8267 64.6162 56.1372 64.7334C56.4507 64.8477 56.7012 65.0527 56.8887 65.3486C57.0762 65.6445 57.1699 65.9829 57.1699 66.3638C57.1699 66.8472 57.0278 67.2471 56.7437 67.5635C56.4595 67.877 56.0347 68.0747 55.4692 68.1567C55.7505 68.3208 55.9819 68.501 56.1636 68.6973C56.3481 68.8936 56.5957 69.2422 56.9062 69.7432L57.6929 71H56.1372L55.1968 69.5981C54.8628 69.0972 54.6343 68.7822 54.5112 68.6533C54.3882 68.5215 54.2578 68.4321 54.1201 68.3853C53.9824 68.3354 53.7642 68.3105 53.4653 68.3105H53.2017V71H51.9009ZM53.2017 67.2822H54.1641C54.7881 67.2822 55.1777 67.2559 55.333 67.2031C55.4883 67.1504 55.6099 67.0596 55.6978 66.9307C55.7856 66.8018 55.8296 66.6406 55.8296 66.4473C55.8296 66.2305 55.771 66.0562 55.6538 65.9243C55.5396 65.7896 55.377 65.7046 55.166 65.6694C55.0605 65.6548 54.7441 65.6475 54.2168 65.6475H53.2017V67.2822ZM58.3608 71V64.5576H59.6616V71H58.3608ZM60.9141 71V64.5576H65.3306V65.6475H62.2148V67.1724H64.9043V68.2622H62.2148V71H60.9141ZM66.3677 71V64.5576H67.6685V71H66.3677ZM68.9121 71V64.5576H73.689V65.6475H70.2129V67.0757H73.4473V68.1611H70.2129V69.9146H73.812V71H68.9121ZM74.9106 64.5576H77.2881C77.8242 64.5576 78.2329 64.5986 78.5142 64.6807C78.8921 64.792 79.2158 64.9897 79.4854 65.2739C79.7549 65.5581 79.96 65.9067 80.1006 66.3198C80.2412 66.73 80.3115 67.2368 80.3115 67.8403C80.3115 68.3706 80.2456 68.8276 80.1138 69.2114C79.9526 69.6802 79.7227 70.0596 79.4238 70.3496C79.1982 70.5693 78.8936 70.7407 78.5098 70.8638C78.2227 70.9546 77.8389 71 77.3584 71H74.9106V64.5576ZM76.2114 65.6475V69.9146H77.1826C77.5459 69.9146 77.8081 69.894 77.9692 69.853C78.1802 69.8003 78.3545 69.7109 78.4922 69.585C78.6328 69.459 78.7471 69.2524 78.835 68.9653C78.9229 68.6753 78.9668 68.2812 78.9668 67.7832C78.9668 67.2852 78.9229 66.9028 78.835 66.6362C78.7471 66.3696 78.624 66.1616 78.4658 66.0122C78.3076 65.8628 78.1069 65.7617 77.8638 65.709C77.6821 65.668 77.3262 65.6475 76.7959 65.6475H76.2114Z" fill="#003FE0"/>
<g clip-path="url(#clip0_298_22445)">
<path d="M22.4062 66.3875C22.315 65.9766 22.329 65.5493 22.447 65.1452C22.5649 64.7411 22.783 64.3734 23.0809 64.0761C23.3789 63.7787 23.7471 63.5615 24.1514 63.4444C24.5557 63.3273 24.983 63.3142 25.3937 63.4062C25.6198 63.0527 25.9313 62.7617 26.2993 62.5602C26.6674 62.3586 27.0803 62.253 27.5 62.253C27.9197 62.253 28.3326 62.3586 28.7007 62.5602C29.0687 62.7617 29.3802 63.0527 29.6062 63.4062C30.0176 63.3138 30.4457 63.3268 30.8506 63.4442C31.2556 63.5616 31.6243 63.7795 31.9224 64.0776C32.2205 64.3757 32.4384 64.7444 32.5558 65.1494C32.6732 65.5543 32.6862 65.9824 32.5937 66.3937C32.9473 66.6198 33.2383 66.9313 33.4398 67.2993C33.6414 67.6674 33.747 68.0803 33.747 68.5C33.747 68.9197 33.6414 69.3326 33.4398 69.7007C33.2383 70.0687 32.9473 70.3802 32.5937 70.6062C32.6858 71.017 32.6727 71.4443 32.5556 71.8486C32.4385 72.2529 32.2213 72.6211 31.9239 72.9191C31.6266 73.217 31.2589 73.4351 30.8548 73.553C30.4507 73.671 30.0234 73.685 29.6125 73.5937C29.3867 73.9487 29.075 74.2409 28.7063 74.4433C28.3376 74.6458 27.9238 74.7519 27.5031 74.7519C27.0825 74.7519 26.6686 74.6458 26.2999 74.4433C25.9312 74.2409 25.6195 73.9487 25.3937 73.5937C24.983 73.6858 24.5557 73.6727 24.1514 73.5556C23.7471 73.4385 23.3789 73.2213 23.0809 72.9239C22.783 72.6266 22.5649 72.2589 22.447 71.8548C22.329 71.4507 22.315 71.0234 22.4062 70.6125C22.05 70.387 21.7565 70.0751 21.5532 69.7058C21.3498 69.3364 21.2432 68.9216 21.2432 68.5C21.2432 68.0784 21.3498 67.6636 21.5532 67.2942C21.7565 66.9249 22.05 66.613 22.4062 66.3875Z" stroke="#003FE0" stroke-linecap="round" stroke-linejoin="round"/>
<path d="M25.625 68.5L26.875 69.75L29.375 67.25" stroke="#003FE0" stroke-linecap="round" stroke-linejoin="round"/>
</g>
<circle cx="256.5" cy="89.5" r="25" fill="#F6F6F6" stroke="#797D8A"/>
<path d="M270.946 70C273.865 74.027 275.595 78.9459 275.595 84.2703C275.595 97.7027 264.703 108.595 251.27 108.595C245.946 108.595 241.027 106.865 237 103.946C241.432 110.027 248.568 114 256.676 114C270.108 114 281 103.108 281 89.6757C281 81.5676 277.027 74.4324 270.946 70Z" fill="#E7E6E6"/>
<path d="M254.796 98.4288C254.477 98.4288 254.159 98.3063 253.938 98.0613L247.127 91.2503C246.637 90.7603 246.637 90.0008 247.127 89.5108C247.617 89.0208 248.377 89.0208 248.867 89.5108L254.722 95.3663L265.208 82.1363C265.625 81.5973 266.409 81.5238 266.923 81.9403C267.462 82.3568 267.536 83.1408 267.119 83.6553L255.776 97.9633C255.555 98.2328 255.237 98.4043 254.894 98.4288C254.845 98.4288 254.82 98.4288 254.796 98.4288Z" fill="#003FE0"/>
<defs>
<clipPath id="clip0_298_22445">
<rect width="15" height="15" fill="white" transform="translate(20 61)"/>
</clipPath>
</defs>
</svg>
