<svg width="870" height="666" viewBox="0 0 870 666" fill="none" xmlns="http://www.w3.org/2000/svg">
<path d="M501.24 316.391C501.826 315.806 501.826 314.856 501.24 314.27L491.694 304.724C491.108 304.138 490.159 304.138 489.573 304.724C488.987 305.31 488.987 306.26 489.573 306.845L498.058 315.331L489.573 323.816C488.987 324.402 488.987 325.351 489.573 325.937C490.159 326.523 491.108 326.523 491.694 325.937L501.24 316.391ZM369.698 316.831H500.179V313.831H369.698V316.831Z" fill="#E7E6E6"/>
<rect width="347.951" height="666" rx="20" fill="#F7F7F7"/>
<rect x="19.0287" y="19.0286" width="309.894" height="625.224" rx="15" fill="white"/>
<rect x="0.5" y="0.5" width="346.951" height="665" rx="20.5" stroke="#4D4D4D"/>
<rect x="19.5287" y="19.5286" width="308.894" height="624.224" rx="11.5" stroke="#4D4D4D"/>
<path d="M96.5021 20.3878V20.3878C99.0318 21.231 100.934 23.3397 101.512 25.9427L103.928 36.8154C105.148 42.3059 110.018 46.2122 115.642 46.2122H228.476C234.59 46.2122 239.727 41.6146 240.402 35.5374L241.46 26.0188C241.749 23.4146 243.527 21.2163 246.012 20.3878V20.3878" stroke="#4D4D4D"/>
<rect x="135.918" y="24.4653" width="54.3673" height="5.43673" rx="2.71837" fill="#EBEBEB"/>
<circle cx="206.596" cy="27.1837" r="5.43673" fill="#EBEBEB"/>
<rect x="127.763" y="619.788" width="92.4245" height="5.43673" rx="2.71837" fill="#EBEBEB"/>
<path d="M95.1428 19.0286H244.653L241.935 21.7469H99.5492L95.1428 19.0286Z" fill="#F7F7F7"/>
<rect x="521.927" width="347.951" height="666" rx="20" fill="#F7F7F7"/>
<rect x="540.955" y="19.0286" width="309.894" height="625.224" rx="15" fill="white"/>
<rect x="522.427" y="0.5" width="346.951" height="665" rx="20.5" stroke="#4D4D4D"/>
<rect x="541.455" y="19.5286" width="308.894" height="624.224" rx="11.5" stroke="#4D4D4D"/>
<path d="M618.429 20.3878V20.3878C620.958 21.231 622.86 23.3397 623.439 25.9427L625.855 36.8154C627.075 42.3059 631.945 46.2122 637.569 46.2122H750.402C756.517 46.2122 761.654 41.6146 762.329 35.5374L763.387 26.0188C763.676 23.4146 765.453 21.2163 767.939 20.3878V20.3878" stroke="#4D4D4D"/>
<rect x="657.845" y="24.4653" width="54.3673" height="5.43673" rx="2.71837" fill="#EBEBEB"/>
<circle cx="728.522" cy="27.1837" r="5.43673" fill="#EBEBEB"/>
<rect x="649.69" y="619.788" width="92.4245" height="5.43673" rx="2.71837" fill="#EBEBEB"/>
<path d="M617.069 19.0286H766.579L763.861 21.7469H621.476L617.069 19.0286Z" fill="#F7F7F7"/>
<rect x="57.0857" y="233.78" width="233.78" height="27.1837" rx="4" fill="#F6F6F6"/>
<rect x="57.0857" y="279.992" width="233.78" height="24.4653" rx="4" fill="#F6F6F6"/>
<rect x="57.0857" y="323.486" width="233.78" height="78.8327" rx="4" fill="#F6F6F6"/>
<rect x="57.0857" y="418.629" width="233.78" height="24.4653" rx="4" fill="#F6F6F6"/>
<rect x="57.0857" y="462.122" width="233.78" height="27.1837" rx="4" fill="#F6F6F6"/>
<rect x="92.4244" y="530.082" width="160.384" height="67.9592" rx="4" fill="#003FE0"/>
<path d="M157.167 557.147C157.107 557.247 157.04 557.323 156.967 557.377C156.9 557.423 156.817 557.447 156.717 557.447C156.604 557.447 156.47 557.39 156.317 557.277C156.164 557.163 155.97 557.04 155.737 556.907C155.51 556.767 155.234 556.64 154.907 556.527C154.587 556.413 154.197 556.357 153.737 556.357C153.304 556.357 152.92 556.417 152.587 556.537C152.26 556.65 151.984 556.807 151.757 557.007C151.537 557.207 151.37 557.443 151.257 557.717C151.144 557.983 151.087 558.273 151.087 558.587C151.087 558.987 151.184 559.32 151.377 559.587C151.577 559.847 151.837 560.07 152.157 560.257C152.484 560.443 152.85 560.607 153.257 560.747C153.67 560.88 154.09 561.02 154.517 561.167C154.95 561.313 155.37 561.48 155.777 561.667C156.19 561.847 156.557 562.077 156.877 562.357C157.204 562.637 157.464 562.98 157.657 563.387C157.857 563.793 157.957 564.293 157.957 564.887C157.957 565.513 157.85 566.103 157.637 566.657C157.424 567.203 157.11 567.68 156.697 568.087C156.29 568.493 155.787 568.813 155.187 569.047C154.594 569.28 153.917 569.397 153.157 569.397C152.224 569.397 151.377 569.23 150.617 568.897C149.857 568.557 149.207 568.1 148.667 567.527L149.227 566.607C149.28 566.533 149.344 566.473 149.417 566.427C149.497 566.373 149.584 566.347 149.677 566.347C149.764 566.347 149.86 566.383 149.967 566.457C150.08 566.523 150.207 566.61 150.347 566.717C150.487 566.823 150.647 566.94 150.827 567.067C151.007 567.193 151.21 567.31 151.437 567.417C151.67 567.523 151.934 567.613 152.227 567.687C152.52 567.753 152.85 567.787 153.217 567.787C153.677 567.787 154.087 567.723 154.447 567.597C154.807 567.47 155.11 567.293 155.357 567.067C155.61 566.833 155.804 566.557 155.937 566.237C156.07 565.917 156.137 565.56 156.137 565.167C156.137 564.733 156.037 564.38 155.837 564.107C155.644 563.827 155.387 563.593 155.067 563.407C154.747 563.22 154.38 563.063 153.967 562.937C153.554 562.803 153.134 562.67 152.707 562.537C152.28 562.397 151.86 562.237 151.447 562.057C151.034 561.877 150.667 561.643 150.347 561.357C150.027 561.07 149.767 560.713 149.567 560.287C149.374 559.853 149.277 559.32 149.277 558.687C149.277 558.18 149.374 557.69 149.567 557.217C149.767 556.743 150.054 556.323 150.427 555.957C150.807 555.59 151.27 555.297 151.817 555.077C152.37 554.857 153.004 554.747 153.717 554.747C154.517 554.747 155.244 554.873 155.897 555.127C156.557 555.38 157.137 555.747 157.637 556.227L157.167 557.147ZM161.89 560.457C162.324 559.997 162.804 559.63 163.33 559.357C163.857 559.083 164.464 558.947 165.15 558.947C165.704 558.947 166.19 559.04 166.61 559.227C167.037 559.407 167.39 559.667 167.67 560.007C167.957 560.34 168.174 560.743 168.32 561.217C168.467 561.69 168.54 562.213 168.54 562.787V569.237H166.75V562.787C166.75 562.02 166.574 561.427 166.22 561.007C165.874 560.58 165.344 560.367 164.63 560.367C164.104 560.367 163.61 560.493 163.15 560.747C162.697 561 162.277 561.343 161.89 561.777V569.237H160.1V554.507H161.89V560.457ZM176.743 564.677C175.923 564.703 175.223 564.77 174.643 564.877C174.07 564.977 173.6 565.11 173.233 565.277C172.873 565.443 172.61 565.64 172.443 565.867C172.283 566.093 172.203 566.347 172.203 566.627C172.203 566.893 172.246 567.123 172.333 567.317C172.42 567.51 172.536 567.67 172.683 567.797C172.836 567.917 173.013 568.007 173.213 568.067C173.42 568.12 173.64 568.147 173.873 568.147C174.186 568.147 174.473 568.117 174.733 568.057C174.993 567.99 175.236 567.897 175.463 567.777C175.696 567.657 175.916 567.513 176.123 567.347C176.336 567.18 176.543 566.99 176.743 566.777V564.677ZM170.993 560.537C171.553 559.997 172.156 559.593 172.803 559.327C173.45 559.06 174.166 558.927 174.953 558.927C175.52 558.927 176.023 559.02 176.463 559.207C176.903 559.393 177.273 559.653 177.573 559.987C177.873 560.32 178.1 560.723 178.253 561.197C178.406 561.67 178.483 562.19 178.483 562.757V569.237H177.693C177.52 569.237 177.386 569.21 177.293 569.157C177.2 569.097 177.126 568.983 177.073 568.817L176.873 567.857C176.606 568.103 176.346 568.323 176.093 568.517C175.84 568.703 175.573 568.863 175.293 568.997C175.013 569.123 174.713 569.22 174.393 569.287C174.08 569.36 173.73 569.397 173.343 569.397C172.95 569.397 172.58 569.343 172.233 569.237C171.886 569.123 171.583 568.957 171.323 568.737C171.07 568.517 170.866 568.24 170.713 567.907C170.566 567.567 170.493 567.167 170.493 566.707C170.493 566.307 170.603 565.923 170.823 565.557C171.043 565.183 171.4 564.853 171.893 564.567C172.386 564.28 173.03 564.047 173.823 563.867C174.616 563.68 175.59 563.573 176.743 563.547V562.757C176.743 561.97 176.573 561.377 176.233 560.977C175.893 560.57 175.396 560.367 174.743 560.367C174.303 560.367 173.933 560.423 173.633 560.537C173.34 560.643 173.083 560.767 172.863 560.907C172.65 561.04 172.463 561.163 172.303 561.277C172.15 561.383 171.996 561.437 171.843 561.437C171.723 561.437 171.62 561.407 171.533 561.347C171.446 561.28 171.373 561.2 171.313 561.107L170.993 560.537ZM182.884 561.137C183.204 560.443 183.598 559.903 184.064 559.517C184.531 559.123 185.101 558.927 185.774 558.927C185.988 558.927 186.191 558.95 186.384 558.997C186.584 559.043 186.761 559.117 186.914 559.217L186.784 560.547C186.744 560.713 186.644 560.797 186.484 560.797C186.391 560.797 186.254 560.777 186.074 560.737C185.894 560.697 185.691 560.677 185.464 560.677C185.144 560.677 184.858 560.723 184.604 560.817C184.358 560.91 184.134 561.05 183.934 561.237C183.741 561.417 183.564 561.643 183.404 561.917C183.251 562.183 183.111 562.49 182.984 562.837V569.237H181.194V559.107H182.214C182.408 559.107 182.541 559.143 182.614 559.217C182.688 559.29 182.738 559.417 182.764 559.597L182.884 561.137ZM194.849 563.067C194.849 562.653 194.789 562.277 194.669 561.937C194.556 561.59 194.386 561.293 194.159 561.047C193.939 560.793 193.669 560.6 193.349 560.467C193.029 560.327 192.666 560.257 192.259 560.257C191.406 560.257 190.729 560.507 190.229 561.007C189.736 561.5 189.429 562.187 189.309 563.067H194.849ZM196.289 567.817C196.069 568.083 195.806 568.317 195.499 568.517C195.193 568.71 194.863 568.87 194.509 568.997C194.163 569.123 193.803 569.217 193.429 569.277C193.056 569.343 192.686 569.377 192.319 569.377C191.619 569.377 190.973 569.26 190.379 569.027C189.793 568.787 189.283 568.44 188.849 567.987C188.423 567.527 188.089 566.96 187.849 566.287C187.609 565.613 187.489 564.84 187.489 563.967C187.489 563.26 187.596 562.6 187.809 561.987C188.029 561.373 188.343 560.843 188.749 560.397C189.156 559.943 189.653 559.59 190.239 559.337C190.826 559.077 191.486 558.947 192.219 558.947C192.826 558.947 193.386 559.05 193.899 559.257C194.419 559.457 194.866 559.75 195.239 560.137C195.619 560.517 195.916 560.99 196.129 561.557C196.343 562.117 196.449 562.757 196.449 563.477C196.449 563.757 196.419 563.943 196.359 564.037C196.299 564.13 196.186 564.177 196.019 564.177H189.249C189.269 564.817 189.356 565.373 189.509 565.847C189.669 566.32 189.889 566.717 190.169 567.037C190.449 567.35 190.783 567.587 191.169 567.747C191.556 567.9 191.989 567.977 192.469 567.977C192.916 567.977 193.299 567.927 193.619 567.827C193.946 567.72 194.226 567.607 194.459 567.487C194.693 567.367 194.886 567.257 195.039 567.157C195.199 567.05 195.336 566.997 195.449 566.997C195.596 566.997 195.709 567.053 195.789 567.167L196.289 567.817Z" fill="white"/>
<path d="M679.675 381.939V399.135H677.347V391.311H668.071V399.135H665.743V381.939H668.071V389.607H677.347V381.939H679.675ZM685.635 386.979V399.135H683.499V386.979H685.635ZM686.091 383.163C686.091 383.371 686.047 383.567 685.959 383.751C685.879 383.927 685.767 384.087 685.623 384.231C685.487 384.367 685.323 384.475 685.131 384.555C684.947 384.635 684.751 384.675 684.543 384.675C684.335 384.675 684.139 384.635 683.955 384.555C683.779 384.475 683.623 384.367 683.487 384.231C683.351 384.087 683.243 383.927 683.163 383.751C683.083 383.567 683.043 383.371 683.043 383.163C683.043 382.955 683.083 382.759 683.163 382.575C683.243 382.383 683.351 382.219 683.487 382.083C683.623 381.939 683.779 381.827 683.955 381.747C684.139 381.667 684.335 381.627 684.543 381.627C684.751 381.627 684.947 381.667 685.131 381.747C685.323 381.827 685.487 381.939 685.623 382.083C685.767 382.219 685.879 382.383 685.959 382.575C686.047 382.759 686.091 382.955 686.091 383.163ZM691.173 389.415C691.557 388.583 692.029 387.935 692.589 387.471C693.149 386.999 693.833 386.763 694.641 386.763C694.897 386.763 695.141 386.791 695.373 386.847C695.613 386.903 695.825 386.991 696.009 387.111L695.853 388.707C695.805 388.907 695.685 389.007 695.493 389.007C695.381 389.007 695.217 388.983 695.001 388.935C694.785 388.887 694.541 388.863 694.269 388.863C693.885 388.863 693.541 388.919 693.237 389.031C692.941 389.143 692.673 389.311 692.433 389.535C692.201 389.751 691.989 390.023 691.797 390.351C691.613 390.671 691.445 391.039 691.293 391.455V399.135H689.145V386.979H690.369C690.601 386.979 690.761 387.023 690.849 387.111C690.937 387.199 690.997 387.351 691.029 387.567L691.173 389.415ZM705.531 391.731C705.531 391.235 705.459 390.783 705.315 390.375C705.179 389.959 704.975 389.603 704.703 389.307C704.439 389.003 704.115 388.771 703.731 388.611C703.347 388.443 702.911 388.359 702.423 388.359C701.399 388.359 700.587 388.659 699.987 389.259C699.395 389.851 699.027 390.675 698.883 391.731H705.531ZM707.259 397.431C706.995 397.751 706.679 398.031 706.311 398.271C705.943 398.503 705.547 398.695 705.123 398.847C704.707 398.999 704.275 399.111 703.827 399.183C703.379 399.263 702.935 399.303 702.495 399.303C701.655 399.303 700.879 399.163 700.167 398.883C699.463 398.595 698.851 398.179 698.331 397.635C697.819 397.083 697.419 396.403 697.131 395.595C696.843 394.787 696.699 393.859 696.699 392.811C696.699 391.963 696.827 391.171 697.083 390.435C697.347 389.699 697.723 389.063 698.211 388.527C698.699 387.983 699.295 387.559 699.999 387.255C700.703 386.943 701.495 386.787 702.375 386.787C703.103 386.787 703.775 386.911 704.391 387.159C705.015 387.399 705.551 387.751 705.999 388.215C706.455 388.671 706.811 389.239 707.067 389.919C707.323 390.591 707.451 391.359 707.451 392.223C707.451 392.559 707.415 392.783 707.343 392.895C707.271 393.007 707.135 393.063 706.935 393.063H698.811C698.835 393.831 698.939 394.499 699.123 395.067C699.315 395.635 699.579 396.111 699.915 396.495C700.251 396.871 700.651 397.155 701.115 397.347C701.579 397.531 702.099 397.623 702.675 397.623C703.211 397.623 703.671 397.563 704.055 397.443C704.447 397.315 704.783 397.179 705.063 397.035C705.343 396.891 705.575 396.759 705.759 396.639C705.951 396.511 706.115 396.447 706.251 396.447C706.427 396.447 706.563 396.515 706.659 396.651L707.259 397.431ZM717.995 389.871C717.595 389.335 717.163 388.963 716.699 388.755C716.235 388.539 715.715 388.431 715.139 388.431C714.011 388.431 713.143 388.835 712.535 389.643C711.927 390.451 711.623 391.603 711.623 393.099C711.623 393.891 711.691 394.571 711.827 395.139C711.963 395.699 712.163 396.163 712.427 396.531C712.691 396.891 713.015 397.155 713.399 397.323C713.783 397.491 714.219 397.575 714.707 397.575C715.411 397.575 716.023 397.415 716.543 397.095C717.071 396.775 717.555 396.323 717.995 395.739V389.871ZM720.131 381.459V399.135H718.859C718.555 399.135 718.363 398.987 718.283 398.691L718.091 397.215C717.571 397.839 716.979 398.343 716.315 398.727C715.651 399.111 714.883 399.303 714.011 399.303C713.315 399.303 712.683 399.171 712.115 398.907C711.547 398.635 711.063 398.239 710.663 397.719C710.263 397.199 709.955 396.551 709.739 395.775C709.523 394.999 709.415 394.107 709.415 393.099C709.415 392.203 709.535 391.371 709.775 390.603C710.015 389.827 710.359 389.155 710.807 388.587C711.255 388.019 711.803 387.575 712.451 387.255C713.107 386.927 713.843 386.763 714.659 386.763C715.403 386.763 716.039 386.891 716.567 387.147C717.103 387.395 717.579 387.743 717.995 388.191V381.459H720.131ZM726.072 381.939V388.803C726.072 389.163 726.064 389.515 726.048 389.859C726.032 390.203 726.012 390.551 725.988 390.903C725.964 391.247 725.932 391.603 725.892 391.971C725.86 392.331 725.82 392.719 725.772 393.135H724.332C724.284 392.719 724.24 392.331 724.2 391.971C724.168 391.603 724.14 391.247 724.116 390.903C724.092 390.551 724.072 390.203 724.056 389.859C724.04 389.515 724.032 389.163 724.032 388.803V381.939H726.072ZM723.516 397.815C723.516 397.607 723.552 397.411 723.624 397.227C723.704 397.043 723.812 396.883 723.948 396.747C724.084 396.611 724.24 396.503 724.416 396.423C724.6 396.343 724.8 396.303 725.016 396.303C725.224 396.303 725.416 396.343 725.592 396.423C725.776 396.503 725.936 396.611 726.072 396.747C726.208 396.883 726.316 397.043 726.396 397.227C726.476 397.411 726.516 397.607 726.516 397.815C726.516 398.031 726.476 398.231 726.396 398.415C726.316 398.591 726.208 398.747 726.072 398.883C725.936 399.019 725.776 399.123 725.592 399.195C725.416 399.275 725.224 399.315 725.016 399.315C724.8 399.315 724.6 399.275 724.416 399.195C724.24 399.123 724.084 399.019 723.948 398.883C723.812 398.747 723.704 398.591 723.624 398.415C723.552 398.231 723.516 398.031 723.516 397.815Z" fill="#79747E"/>
<path d="M650 419.386C672.375 419.386 694.752 419.46 717.127 419.364C724.827 419.331 732.529 419 740.226 419C742.869 419 737.901 420.449 737.823 420.478C717.968 427.732 694.666 428.518 677.098 441.317C675.39 442.561 672.281 444.98 673.609 446.628C675.904 449.473 685.329 447.072 687.818 446.692C693.984 445.751 700.103 444.561 706.28 443.672" stroke="#FFCB25" stroke-width="4" stroke-linecap="round"/>
<path d="M63.96 118.132C64.632 118.132 65.224 118.052 65.736 117.892C66.256 117.724 66.688 117.492 67.032 117.196C67.384 116.892 67.648 116.532 67.824 116.116C68 115.7 68.088 115.24 68.088 114.736C68.088 113.712 67.752 112.94 67.08 112.42C66.408 111.9 65.4 111.64 64.056 111.64H61.512V118.132H63.96ZM71.904 127H69.84C69.416 127 69.104 126.836 68.904 126.508L64.44 120.364C64.304 120.172 64.156 120.036 63.996 119.956C63.844 119.868 63.604 119.824 63.276 119.824H61.512V127H59.196V109.804H64.056C65.144 109.804 66.084 109.916 66.876 110.14C67.668 110.356 68.32 110.672 68.832 111.088C69.352 111.504 69.736 112.008 69.984 112.6C70.232 113.184 70.356 113.84 70.356 114.568C70.356 115.176 70.26 115.744 70.068 116.272C69.876 116.8 69.596 117.276 69.228 117.7C68.868 118.116 68.424 118.472 67.896 118.768C67.376 119.064 66.784 119.288 66.12 119.44C66.416 119.608 66.672 119.852 66.888 120.172L71.904 127ZM81.1014 119.596C81.1014 119.1 81.0294 118.648 80.8854 118.24C80.7494 117.824 80.5454 117.468 80.2734 117.172C80.0094 116.868 79.6854 116.636 79.3014 116.476C78.9174 116.308 78.4814 116.224 77.9934 116.224C76.9694 116.224 76.1574 116.524 75.5574 117.124C74.9654 117.716 74.5974 118.54 74.4534 119.596H81.1014ZM82.8294 125.296C82.5654 125.616 82.2494 125.896 81.8814 126.136C81.5134 126.368 81.1174 126.56 80.6934 126.712C80.2774 126.864 79.8454 126.976 79.3974 127.048C78.9494 127.128 78.5054 127.168 78.0654 127.168C77.2254 127.168 76.4494 127.028 75.7374 126.748C75.0334 126.46 74.4214 126.044 73.9014 125.5C73.3894 124.948 72.9894 124.268 72.7014 123.46C72.4134 122.652 72.2694 121.724 72.2694 120.676C72.2694 119.828 72.3974 119.036 72.6534 118.3C72.9174 117.564 73.2934 116.928 73.7814 116.392C74.2694 115.848 74.8654 115.424 75.5694 115.12C76.2734 114.808 77.0654 114.652 77.9454 114.652C78.6734 114.652 79.3454 114.776 79.9614 115.024C80.5854 115.264 81.1214 115.616 81.5694 116.08C82.0254 116.536 82.3814 117.104 82.6374 117.784C82.8934 118.456 83.0214 119.224 83.0214 120.088C83.0214 120.424 82.9854 120.648 82.9134 120.76C82.8414 120.872 82.7054 120.928 82.5054 120.928H74.3814C74.4054 121.696 74.5094 122.364 74.6934 122.932C74.8854 123.5 75.1494 123.976 75.4854 124.36C75.8214 124.736 76.2214 125.02 76.6854 125.212C77.1494 125.396 77.6694 125.488 78.2454 125.488C78.7814 125.488 79.2414 125.428 79.6254 125.308C80.0174 125.18 80.3534 125.044 80.6334 124.9C80.9134 124.756 81.1454 124.624 81.3294 124.504C81.5214 124.376 81.6854 124.312 81.8214 124.312C81.9974 124.312 82.1334 124.38 82.2294 124.516L82.8294 125.296ZM92.7251 116.848C92.6291 117.024 92.4811 117.112 92.2811 117.112C92.1611 117.112 92.0251 117.068 91.8731 116.98C91.7211 116.892 91.5331 116.796 91.3091 116.692C91.0931 116.58 90.8331 116.48 90.5291 116.392C90.2251 116.296 89.8651 116.248 89.4491 116.248C89.0891 116.248 88.7651 116.296 88.4771 116.392C88.1891 116.48 87.9411 116.604 87.7331 116.764C87.5331 116.924 87.3771 117.112 87.2651 117.328C87.1611 117.536 87.1091 117.764 87.1091 118.012C87.1091 118.324 87.1971 118.584 87.3731 118.792C87.5571 119 87.7971 119.18 88.0931 119.332C88.3891 119.484 88.7251 119.62 89.1011 119.74C89.4771 119.852 89.8611 119.976 90.2531 120.112C90.6531 120.24 91.0411 120.384 91.4171 120.544C91.7931 120.704 92.1291 120.904 92.4251 121.144C92.7211 121.384 92.9571 121.68 93.1331 122.032C93.3171 122.376 93.4091 122.792 93.4091 123.28C93.4091 123.84 93.3091 124.36 93.1091 124.84C92.9091 125.312 92.6131 125.724 92.2211 126.076C91.8291 126.42 91.3491 126.692 90.7811 126.892C90.2131 127.092 89.5571 127.192 88.8131 127.192C87.9651 127.192 87.1971 127.056 86.5091 126.784C85.8211 126.504 85.2371 126.148 84.7571 125.716L85.2611 124.9C85.3251 124.796 85.4011 124.716 85.4891 124.66C85.5771 124.604 85.6891 124.576 85.8251 124.576C85.9691 124.576 86.1211 124.632 86.2811 124.744C86.4411 124.856 86.6331 124.98 86.8571 125.116C87.0891 125.252 87.3691 125.376 87.6971 125.488C88.0251 125.6 88.4331 125.656 88.9211 125.656C89.3371 125.656 89.7011 125.604 90.0131 125.5C90.3251 125.388 90.5851 125.24 90.7931 125.056C91.0011 124.872 91.1531 124.66 91.2491 124.42C91.3531 124.18 91.4051 123.924 91.4051 123.652C91.4051 123.316 91.3131 123.04 91.1291 122.824C90.9531 122.6 90.7171 122.412 90.4211 122.26C90.1251 122.1 89.7851 121.964 89.4011 121.852C89.0251 121.732 88.6371 121.608 88.2371 121.48C87.8451 121.352 87.4571 121.208 87.0731 121.048C86.6971 120.88 86.3611 120.672 86.0651 120.424C85.7691 120.176 85.5291 119.872 85.3451 119.512C85.1691 119.144 85.0811 118.7 85.0811 118.18C85.0811 117.716 85.1771 117.272 85.3691 116.848C85.5611 116.416 85.8411 116.04 86.2091 115.72C86.5771 115.392 87.0291 115.132 87.5651 114.94C88.1011 114.748 88.7131 114.652 89.4011 114.652C90.2011 114.652 90.9171 114.78 91.5491 115.036C92.1891 115.284 92.7411 115.628 93.2051 116.068L92.7251 116.848ZM106.024 114.844V127H104.752C104.448 127 104.256 126.852 104.176 126.556L104.008 125.248C103.48 125.832 102.888 126.304 102.232 126.664C101.576 127.016 100.824 127.192 99.9759 127.192C99.3119 127.192 98.7239 127.084 98.2119 126.868C97.7079 126.644 97.2839 126.332 96.9399 125.932C96.5959 125.532 96.3359 125.048 96.1599 124.48C95.9919 123.912 95.9079 123.284 95.9079 122.596V114.844H98.0439V122.596C98.0439 123.516 98.2519 124.228 98.6679 124.732C99.0919 125.236 99.7359 125.488 100.6 125.488C101.232 125.488 101.82 125.34 102.364 125.044C102.916 124.74 103.424 124.324 103.888 123.796V114.844H106.024ZM109.411 127V114.844H110.695C110.999 114.844 111.187 114.992 111.259 115.288L111.415 116.536C111.863 115.984 112.367 115.532 112.927 115.18C113.487 114.828 114.135 114.652 114.871 114.652C115.687 114.652 116.347 114.88 116.851 115.336C117.363 115.792 117.731 116.408 117.955 117.184C118.131 116.744 118.355 116.364 118.627 116.044C118.907 115.724 119.219 115.46 119.563 115.252C119.907 115.044 120.271 114.892 120.655 114.796C121.047 114.7 121.443 114.652 121.843 114.652C122.483 114.652 123.051 114.756 123.547 114.964C124.051 115.164 124.475 115.46 124.819 115.852C125.171 116.244 125.439 116.728 125.623 117.304C125.807 117.872 125.899 118.524 125.899 119.26V127H123.751V119.26C123.751 118.308 123.543 117.588 123.127 117.1C122.711 116.604 122.111 116.356 121.327 116.356C120.975 116.356 120.639 116.42 120.319 116.548C120.007 116.668 119.731 116.848 119.491 117.088C119.251 117.328 119.059 117.632 118.915 118C118.779 118.36 118.711 118.78 118.711 119.26V127H116.563V119.26C116.563 118.284 116.367 117.556 115.975 117.076C115.583 116.596 115.011 116.356 114.259 116.356C113.731 116.356 113.243 116.5 112.795 116.788C112.347 117.068 111.935 117.452 111.559 117.94V127H109.411ZM137.281 119.596C137.281 119.1 137.209 118.648 137.065 118.24C136.929 117.824 136.725 117.468 136.453 117.172C136.189 116.868 135.865 116.636 135.481 116.476C135.097 116.308 134.661 116.224 134.173 116.224C133.149 116.224 132.337 116.524 131.737 117.124C131.145 117.716 130.777 118.54 130.633 119.596H137.281ZM139.009 125.296C138.745 125.616 138.429 125.896 138.061 126.136C137.693 126.368 137.297 126.56 136.873 126.712C136.457 126.864 136.025 126.976 135.577 127.048C135.129 127.128 134.685 127.168 134.245 127.168C133.405 127.168 132.629 127.028 131.917 126.748C131.213 126.46 130.601 126.044 130.081 125.5C129.569 124.948 129.169 124.268 128.881 123.46C128.593 122.652 128.449 121.724 128.449 120.676C128.449 119.828 128.577 119.036 128.833 118.3C129.097 117.564 129.473 116.928 129.961 116.392C130.449 115.848 131.045 115.424 131.749 115.12C132.453 114.808 133.245 114.652 134.125 114.652C134.853 114.652 135.525 114.776 136.141 115.024C136.765 115.264 137.301 115.616 137.749 116.08C138.205 116.536 138.561 117.104 138.817 117.784C139.073 118.456 139.201 119.224 139.201 120.088C139.201 120.424 139.165 120.648 139.093 120.76C139.021 120.872 138.885 120.928 138.685 120.928H130.561C130.585 121.696 130.689 122.364 130.873 122.932C131.065 123.5 131.329 123.976 131.665 124.36C132.001 124.736 132.401 125.02 132.865 125.212C133.329 125.396 133.849 125.488 134.425 125.488C134.961 125.488 135.421 125.428 135.805 125.308C136.197 125.18 136.533 125.044 136.813 124.9C137.093 124.756 137.325 124.624 137.509 124.504C137.701 124.376 137.865 124.312 138.001 124.312C138.177 124.312 138.313 124.38 138.409 124.516L139.009 125.296Z" fill="#79747E"/>
<path d="M110.597 191L105.991 178.115H108.812L112.073 187.651L115.229 178.115H117.988L113.374 191H110.597ZM119.315 191V178.115H128.869V180.295H121.917V183.151H128.386V185.322H121.917V188.829H129.115V191H119.315ZM131.33 191V178.115H136.806C138.183 178.115 139.182 178.232 139.803 178.467C140.43 178.695 140.931 179.105 141.306 179.697C141.681 180.289 141.868 180.966 141.868 181.728C141.868 182.694 141.584 183.494 141.016 184.127C140.447 184.754 139.598 185.149 138.467 185.313C139.029 185.642 139.492 186.002 139.855 186.395C140.225 186.787 140.72 187.484 141.341 188.486L142.914 191H139.803L137.922 188.196C137.254 187.194 136.797 186.564 136.551 186.307C136.305 186.043 136.044 185.864 135.769 185.771C135.493 185.671 135.057 185.621 134.459 185.621H133.932V191H131.33ZM133.932 183.564H135.856C137.104 183.564 137.884 183.512 138.194 183.406C138.505 183.301 138.748 183.119 138.924 182.861C139.1 182.604 139.188 182.281 139.188 181.895C139.188 181.461 139.07 181.112 138.836 180.849C138.607 180.579 138.282 180.409 137.86 180.339C137.649 180.31 137.017 180.295 135.962 180.295H133.932V183.564ZM144.25 191V178.115H146.852V191H144.25ZM149.356 191V178.115H158.189V180.295H151.958V183.345H157.337V185.524H151.958V191H149.356ZM160.264 191V178.115H162.865V191H160.264ZM165.353 191V178.115H174.906V180.295H167.954V183.151H174.423V185.322H167.954V188.829H175.152V191H165.353ZM177.35 178.115H182.104C183.177 178.115 183.994 178.197 184.557 178.361C185.312 178.584 185.96 178.979 186.499 179.548C187.038 180.116 187.448 180.813 187.729 181.64C188.011 182.46 188.151 183.474 188.151 184.681C188.151 185.741 188.02 186.655 187.756 187.423C187.434 188.36 186.974 189.119 186.376 189.699C185.925 190.139 185.315 190.481 184.548 190.728C183.974 190.909 183.206 191 182.245 191H177.35V178.115ZM179.951 180.295V188.829H181.894C182.62 188.829 183.145 188.788 183.467 188.706C183.889 188.601 184.237 188.422 184.513 188.17C184.794 187.918 185.022 187.505 185.198 186.931C185.374 186.351 185.462 185.562 185.462 184.566C185.462 183.57 185.374 182.806 185.198 182.272C185.022 181.739 184.776 181.323 184.46 181.024C184.144 180.726 183.742 180.523 183.256 180.418C182.893 180.336 182.181 180.295 181.12 180.295H179.951Z" fill="#003FE0"/>
<path d="M61.8979 178.444C61.6364 177.266 61.6765 176.041 62.0146 174.883C62.3527 173.725 62.9778 172.67 63.8319 171.818C64.6861 170.966 65.7416 170.343 66.9006 170.007C68.0596 169.672 69.2846 169.634 70.4621 169.898C71.1101 168.884 72.0029 168.05 73.0581 167.473C74.1133 166.895 75.297 166.592 76.5 166.592C77.703 166.592 78.8867 166.895 79.9419 167.473C80.9971 168.05 81.8898 168.884 82.5379 169.898C83.7171 169.633 84.9442 169.67 86.1051 170.007C87.266 170.343 88.3229 170.968 89.1775 171.822C90.0322 172.677 90.6568 173.734 90.9933 174.895C91.3298 176.056 91.3672 177.283 91.1021 178.462C92.1156 179.11 92.9497 180.003 93.5275 181.058C94.1052 182.113 94.4081 183.297 94.4081 184.5C94.4081 185.703 94.1052 186.887 93.5275 187.942C92.9497 188.997 92.1156 189.89 91.1021 190.538C91.366 191.715 91.3285 192.94 90.9928 194.099C90.6571 195.258 90.0342 196.314 89.1819 197.168C88.3296 198.022 87.2754 198.647 86.117 198.985C84.9587 199.323 83.7338 199.364 82.5558 199.102C81.9086 200.12 81.0151 200.957 79.9581 201.538C78.9011 202.118 77.7148 202.422 76.5089 202.422C75.3031 202.422 74.1168 202.118 73.0598 201.538C72.0028 200.957 71.1093 200.12 70.4621 199.102C69.2846 199.366 68.0596 199.328 66.9006 198.993C65.7416 198.657 64.6861 198.034 63.8319 197.182C62.9778 196.33 62.3527 195.275 62.0146 194.117C61.6765 192.959 61.6364 191.734 61.8979 190.556C60.8766 189.909 60.0353 189.015 59.4524 187.957C58.8694 186.898 58.5637 185.709 58.5637 184.5C58.5637 183.291 58.8694 182.102 59.4524 181.043C60.0353 179.985 60.8766 179.091 61.8979 178.444Z" stroke="#003FE0" stroke-width="2" stroke-linecap="round" stroke-linejoin="round"/>
<path d="M71.125 184.5L74.7083 188.083L81.875 180.917" stroke="#003FE0" stroke-width="2" stroke-linecap="round" stroke-linejoin="round"/>
<circle cx="697.261" cy="243.294" r="68.8184" fill="#F6F6F6" stroke="#797D8A"/>
<path d="M736.53 190.286C744.465 201.233 749.167 214.604 749.167 229.078C749.167 265.592 719.559 295.2 683.045 295.2C668.571 295.2 655.2 290.498 644.253 282.563C656.302 299.094 675.698 309.894 697.739 309.894C734.253 309.894 763.861 280.286 763.861 243.771C763.861 221.731 753.061 202.335 736.53 190.286Z" fill="#E7E6E6"/>
<path d="M692.628 267.566C691.762 267.566 690.897 267.233 690.297 266.567L671.782 248.052C670.45 246.72 670.45 244.655 671.782 243.323C673.114 241.991 675.179 241.991 676.511 243.323L692.428 259.241L720.933 223.277C722.065 221.811 724.197 221.612 725.595 222.744C727.06 223.876 727.26 226.007 726.128 227.406L695.292 266.3C694.693 267.033 693.827 267.499 692.895 267.566C692.761 267.566 692.695 267.566 692.628 267.566Z" fill="#003FE0"/>
</svg>
