<svg width="518" height="396" viewBox="0 0 518 396" fill="none" xmlns="http://www.w3.org/2000/svg">
<path d="M298.465 188.555C299.051 187.969 299.051 187.019 298.465 186.433L288.919 176.887C288.333 176.301 287.383 176.301 286.798 176.887C286.212 177.473 286.212 178.423 286.798 179.009L295.283 187.494L286.798 195.979C286.212 196.565 286.212 197.515 286.798 198.1C287.383 198.686 288.333 198.686 288.919 198.1L298.465 188.555ZM219.82 188.994H297.404V185.994H219.82V188.994Z" fill="#E7E6E6"/>
<rect width="206.89" height="396" rx="20" fill="#F7F7F7"/>
<rect x="11.3143" y="11.3143" width="184.261" height="371.755" rx="15" fill="white"/>
<rect x="0.5" y="0.5" width="205.89" height="395" rx="20.5" stroke="#4D4D4D"/>
<rect x="11.8143" y="11.8143" width="183.261" height="370.755" rx="11.5" stroke="#4D4D4D"/>
<path d="M57.3796 12.1224V12.1224C58.8837 12.6238 60.0145 13.8776 60.3585 15.4254L61.1416 18.9497C62.2489 23.9324 66.6683 27.4775 71.7726 27.4775H133.702C138.561 27.4775 142.643 23.824 143.179 18.9947L143.571 15.4706C143.743 13.9222 144.8 12.6151 146.278 12.1224V12.1224" stroke="#4D4D4D"/>
<rect x="80.8163" y="14.5469" width="32.3265" height="3.23265" rx="1.61633" fill="#EBEBEB"/>
<circle cx="122.841" cy="16.1633" r="3.23265" fill="#EBEBEB"/>
<rect x="75.9673" y="368.522" width="54.9551" height="3.23265" rx="1.61633" fill="#EBEBEB"/>
<path d="M56.5714 11.3143H145.469L143.853 12.9306H59.1914L56.5714 11.3143Z" fill="#F7F7F7"/>
<rect x="310.335" width="206.89" height="396" rx="20" fill="#F7F7F7"/>
<rect x="321.649" y="11.3143" width="184.261" height="371.755" rx="15" fill="white"/>
<rect x="310.835" y="0.5" width="205.89" height="395" rx="20.5" stroke="#4D4D4D"/>
<rect x="322.149" y="11.8143" width="183.261" height="370.755" rx="11.5" stroke="#4D4D4D"/>
<path d="M367.714 12.1224V12.1224C369.218 12.6238 370.349 13.8776 370.693 15.4254L371.476 18.9497C372.584 23.9324 377.003 27.4775 382.107 27.4775H444.036C448.895 27.4775 452.977 23.824 453.514 18.9947L453.906 15.4706C454.078 13.9222 455.134 12.6151 456.612 12.1224V12.1224" stroke="#4D4D4D"/>
<rect x="391.151" y="14.5469" width="32.3265" height="3.23265" rx="1.61633" fill="#EBEBEB"/>
<circle cx="433.176" cy="16.1633" r="3.23265" fill="#EBEBEB"/>
<rect x="386.302" y="368.522" width="54.9551" height="3.23265" rx="1.61633" fill="#EBEBEB"/>
<path d="M366.906 11.3143H455.804L454.188 12.9306H369.526L366.906 11.3143Z" fill="#F7F7F7"/>
<rect x="33.9429" y="139.004" width="139.004" height="16.1633" rx="4" fill="#F6F6F6"/>
<rect x="33.9429" y="166.482" width="139.004" height="14.5469" rx="4" fill="#F6F6F6"/>
<rect x="33.9429" y="192.343" width="139.004" height="46.8735" rx="4" fill="#F6F6F6"/>
<rect x="33.9429" y="248.914" width="139.004" height="14.5469" rx="4" fill="#F6F6F6"/>
<rect x="33.9429" y="274.776" width="139.004" height="16.1633" rx="4" fill="#F6F6F6"/>
<rect x="54.9551" y="315.184" width="95.3633" height="40.4082" rx="4" fill="#003FE0"/>
<path d="M91.8222 330.57C91.7802 330.64 91.7335 330.693 91.6822 330.731C91.6355 330.763 91.5772 330.78 91.5072 330.78C91.4279 330.78 91.3345 330.74 91.2272 330.661C91.1199 330.581 90.9845 330.495 90.8212 330.402C90.6625 330.304 90.4689 330.215 90.2402 330.136C90.0162 330.056 89.7432 330.017 89.4212 330.017C89.1179 330.017 88.8495 330.059 88.6162 330.143C88.3875 330.222 88.1939 330.332 88.0352 330.472C87.8812 330.612 87.7645 330.777 87.6852 330.969C87.6059 331.155 87.5662 331.358 87.5662 331.578C87.5662 331.858 87.6339 332.091 87.7692 332.278C87.9092 332.46 88.0912 332.616 88.3152 332.747C88.5439 332.877 88.8005 332.992 89.0852 333.09C89.3745 333.183 89.6685 333.281 89.9672 333.384C90.2705 333.486 90.5645 333.603 90.8492 333.734C91.1385 333.86 91.3952 334.021 91.6192 334.217C91.8479 334.413 92.0299 334.653 92.1652 334.938C92.3052 335.222 92.3752 335.572 92.3752 335.988C92.3752 336.426 92.3005 336.839 92.1512 337.227C92.0019 337.609 91.7825 337.943 91.4932 338.228C91.2085 338.512 90.8562 338.736 90.4362 338.9C90.0209 339.063 89.5472 339.145 89.0152 339.145C88.3619 339.145 87.7692 339.028 87.2372 338.795C86.7052 338.557 86.2502 338.237 85.8722 337.836L86.2642 337.192C86.3015 337.14 86.3459 337.098 86.3972 337.066C86.4532 337.028 86.5139 337.01 86.5792 337.01C86.6399 337.01 86.7075 337.035 86.7822 337.087C86.8615 337.133 86.9502 337.194 87.0482 337.269C87.1462 337.343 87.2582 337.425 87.3842 337.514C87.5102 337.602 87.6525 337.684 87.8112 337.759C87.9745 337.833 88.1589 337.896 88.3642 337.948C88.5695 337.994 88.8005 338.018 89.0572 338.018C89.3792 338.018 89.6662 337.973 89.9182 337.885C90.1702 337.796 90.3825 337.672 90.5552 337.514C90.7325 337.35 90.8679 337.157 90.9612 336.933C91.0545 336.709 91.1012 336.459 91.1012 336.184C91.1012 335.88 91.0312 335.633 90.8912 335.442C90.7559 335.246 90.5762 335.082 90.3522 334.952C90.1282 334.821 89.8715 334.711 89.5822 334.623C89.2929 334.529 88.9989 334.436 88.7002 334.343C88.4015 334.245 88.1075 334.133 87.8182 334.007C87.5289 333.881 87.2722 333.717 87.0482 333.517C86.8242 333.316 86.6422 333.066 86.5022 332.768C86.3669 332.464 86.2992 332.091 86.2992 331.648C86.2992 331.293 86.3669 330.95 86.5022 330.619C86.6422 330.287 86.8429 329.993 87.1042 329.737C87.3702 329.48 87.6945 329.275 88.0772 329.121C88.4645 328.967 88.9079 328.89 89.4072 328.89C89.9672 328.89 90.4759 328.978 90.9332 329.156C91.3952 329.333 91.8012 329.59 92.1512 329.926L91.8222 330.57ZM95.1287 332.887C95.4321 332.565 95.7681 332.308 96.1367 332.117C96.5054 331.925 96.9301 331.83 97.4107 331.83C97.7981 331.83 98.1387 331.895 98.4327 332.026C98.7314 332.152 98.9787 332.334 99.1747 332.572C99.3754 332.805 99.5271 333.087 99.6297 333.419C99.7324 333.75 99.7837 334.116 99.7837 334.518V339.033H98.5307V334.518C98.5307 333.981 98.4071 333.566 98.1597 333.272C97.9171 332.973 97.5461 332.824 97.0467 332.824C96.6781 332.824 96.3327 332.912 96.0107 333.09C95.6934 333.267 95.3994 333.507 95.1287 333.811V339.033H93.8757V328.722H95.1287V332.887ZM105.525 335.841C104.951 335.859 104.461 335.906 104.055 335.981C103.654 336.051 103.325 336.144 103.068 336.261C102.816 336.377 102.632 336.515 102.515 336.674C102.403 336.832 102.347 337.01 102.347 337.206C102.347 337.392 102.378 337.553 102.438 337.689C102.499 337.824 102.581 337.936 102.683 338.025C102.791 338.109 102.914 338.172 103.054 338.214C103.199 338.251 103.353 338.27 103.516 338.27C103.736 338.27 103.936 338.249 104.118 338.207C104.3 338.16 104.471 338.095 104.629 338.011C104.793 337.927 104.947 337.826 105.091 337.71C105.241 337.593 105.385 337.46 105.525 337.311V335.841ZM101.5 332.943C101.892 332.565 102.315 332.282 102.767 332.096C103.22 331.909 103.722 331.816 104.272 331.816C104.669 331.816 105.021 331.881 105.329 332.012C105.637 332.142 105.896 332.324 106.106 332.558C106.316 332.791 106.475 333.073 106.582 333.405C106.69 333.736 106.743 334.1 106.743 334.497V339.033H106.19C106.069 339.033 105.976 339.014 105.91 338.977C105.845 338.935 105.794 338.855 105.756 338.739L105.616 338.067C105.43 338.239 105.248 338.393 105.07 338.529C104.893 338.659 104.706 338.771 104.51 338.865C104.314 338.953 104.104 339.021 103.88 339.068C103.661 339.119 103.416 339.145 103.145 339.145C102.87 339.145 102.611 339.107 102.368 339.033C102.126 338.953 101.913 338.837 101.731 338.683C101.554 338.529 101.412 338.335 101.304 338.102C101.202 337.864 101.15 337.584 101.15 337.262C101.15 336.982 101.227 336.713 101.381 336.457C101.535 336.195 101.785 335.964 102.13 335.764C102.476 335.563 102.926 335.4 103.481 335.274C104.037 335.143 104.718 335.068 105.525 335.05V334.497C105.525 333.946 105.406 333.531 105.168 333.251C104.93 332.966 104.583 332.824 104.125 332.824C103.817 332.824 103.558 332.863 103.348 332.943C103.143 333.017 102.963 333.104 102.809 333.202C102.66 333.295 102.529 333.381 102.417 333.461C102.31 333.535 102.203 333.573 102.095 333.573C102.011 333.573 101.939 333.552 101.878 333.51C101.818 333.463 101.766 333.407 101.724 333.342L101.5 332.943ZM109.824 333.363C110.048 332.877 110.324 332.499 110.65 332.229C110.977 331.953 111.376 331.816 111.847 331.816C111.997 331.816 112.139 331.832 112.274 331.865C112.414 331.897 112.538 331.949 112.645 332.019L112.554 332.95C112.526 333.066 112.456 333.125 112.344 333.125C112.279 333.125 112.183 333.111 112.057 333.083C111.931 333.055 111.789 333.041 111.63 333.041C111.406 333.041 111.206 333.073 111.028 333.139C110.856 333.204 110.699 333.302 110.559 333.433C110.424 333.559 110.3 333.717 110.188 333.909C110.081 334.095 109.983 334.31 109.894 334.553V339.033H108.641V331.942H109.355C109.491 331.942 109.584 331.967 109.635 332.019C109.687 332.07 109.722 332.159 109.74 332.285L109.824 333.363ZM118.2 334.714C118.2 334.424 118.158 334.161 118.074 333.923C117.995 333.68 117.876 333.472 117.717 333.3C117.563 333.122 117.374 332.987 117.15 332.894C116.926 332.796 116.672 332.747 116.387 332.747C115.79 332.747 115.316 332.922 114.966 333.272C114.621 333.617 114.406 334.098 114.322 334.714H118.2ZM119.208 338.039C119.054 338.225 118.87 338.389 118.655 338.529C118.44 338.664 118.209 338.776 117.962 338.865C117.719 338.953 117.467 339.019 117.206 339.061C116.945 339.107 116.686 339.131 116.429 339.131C115.939 339.131 115.486 339.049 115.071 338.886C114.66 338.718 114.303 338.475 114 338.158C113.701 337.836 113.468 337.439 113.3 336.968C113.132 336.496 113.048 335.955 113.048 335.344C113.048 334.849 113.123 334.387 113.272 333.958C113.426 333.528 113.645 333.157 113.93 332.845C114.215 332.527 114.562 332.28 114.973 332.103C115.384 331.921 115.846 331.83 116.359 331.83C116.784 331.83 117.176 331.902 117.535 332.047C117.899 332.187 118.212 332.392 118.473 332.663C118.739 332.929 118.947 333.26 119.096 333.657C119.245 334.049 119.32 334.497 119.32 335.001C119.32 335.197 119.299 335.327 119.257 335.393C119.215 335.458 119.136 335.491 119.019 335.491H114.28C114.294 335.939 114.355 336.328 114.462 336.66C114.574 336.991 114.728 337.269 114.924 337.493C115.12 337.712 115.353 337.878 115.624 337.99C115.895 338.097 116.198 338.151 116.534 338.151C116.847 338.151 117.115 338.116 117.339 338.046C117.568 337.971 117.764 337.892 117.927 337.808C118.09 337.724 118.226 337.647 118.333 337.577C118.445 337.502 118.541 337.465 118.62 337.465C118.723 337.465 118.802 337.504 118.858 337.584L119.208 338.039Z" fill="white"/>
<path d="M397.552 229.857V247.053H395.224V239.229H385.948V247.053H383.62V229.857H385.948V237.525H395.224V229.857H397.552ZM403.513 234.897V247.053H401.377V234.897H403.513ZM403.969 231.081C403.969 231.289 403.925 231.485 403.837 231.669C403.757 231.845 403.645 232.005 403.501 232.149C403.365 232.285 403.201 232.393 403.009 232.473C402.825 232.553 402.629 232.593 402.421 232.593C402.213 232.593 402.017 232.553 401.833 232.473C401.657 232.393 401.501 232.285 401.365 232.149C401.229 232.005 401.121 231.845 401.041 231.669C400.961 231.485 400.921 231.289 400.921 231.081C400.921 230.873 400.961 230.677 401.041 230.493C401.121 230.301 401.229 230.137 401.365 230.001C401.501 229.857 401.657 229.745 401.833 229.665C402.017 229.585 402.213 229.545 402.421 229.545C402.629 229.545 402.825 229.585 403.009 229.665C403.201 229.745 403.365 229.857 403.501 230.001C403.645 230.137 403.757 230.301 403.837 230.493C403.925 230.677 403.969 230.873 403.969 231.081ZM409.05 237.333C409.434 236.501 409.906 235.853 410.466 235.389C411.026 234.917 411.71 234.681 412.518 234.681C412.774 234.681 413.018 234.709 413.25 234.765C413.49 234.821 413.702 234.909 413.886 235.029L413.73 236.625C413.682 236.825 413.562 236.925 413.37 236.925C413.258 236.925 413.094 236.901 412.878 236.853C412.662 236.805 412.418 236.781 412.146 236.781C411.762 236.781 411.418 236.837 411.114 236.949C410.818 237.061 410.55 237.229 410.31 237.453C410.078 237.669 409.866 237.941 409.674 238.269C409.49 238.589 409.322 238.957 409.17 239.373V247.053H407.022V234.897H408.246C408.478 234.897 408.638 234.941 408.726 235.029C408.814 235.117 408.874 235.269 408.906 235.485L409.05 237.333ZM423.408 239.649C423.408 239.153 423.336 238.701 423.192 238.293C423.056 237.877 422.852 237.521 422.58 237.225C422.316 236.921 421.992 236.689 421.608 236.529C421.224 236.361 420.788 236.277 420.3 236.277C419.276 236.277 418.464 236.577 417.864 237.177C417.272 237.769 416.904 238.593 416.76 239.649H423.408ZM425.136 245.349C424.872 245.669 424.556 245.949 424.188 246.189C423.82 246.421 423.424 246.613 423 246.765C422.584 246.917 422.152 247.029 421.704 247.101C421.256 247.181 420.812 247.221 420.372 247.221C419.532 247.221 418.756 247.081 418.044 246.801C417.34 246.513 416.728 246.097 416.208 245.553C415.696 245.001 415.296 244.321 415.008 243.513C414.72 242.705 414.576 241.777 414.576 240.729C414.576 239.881 414.704 239.089 414.96 238.353C415.224 237.617 415.6 236.981 416.088 236.445C416.576 235.901 417.172 235.477 417.876 235.173C418.58 234.861 419.372 234.705 420.252 234.705C420.98 234.705 421.652 234.829 422.268 235.077C422.892 235.317 423.428 235.669 423.876 236.133C424.332 236.589 424.688 237.157 424.944 237.837C425.2 238.509 425.328 239.277 425.328 240.141C425.328 240.477 425.292 240.701 425.22 240.813C425.148 240.925 425.012 240.981 424.812 240.981H416.688C416.712 241.749 416.816 242.417 417 242.985C417.192 243.553 417.456 244.029 417.792 244.413C418.128 244.789 418.528 245.073 418.992 245.265C419.456 245.449 419.976 245.541 420.552 245.541C421.088 245.541 421.548 245.481 421.932 245.361C422.324 245.233 422.66 245.097 422.94 244.953C423.22 244.809 423.452 244.677 423.636 244.557C423.828 244.429 423.992 244.365 424.128 244.365C424.304 244.365 424.44 244.433 424.536 244.569L425.136 245.349ZM435.872 237.789C435.472 237.253 435.04 236.881 434.576 236.673C434.112 236.457 433.592 236.349 433.016 236.349C431.888 236.349 431.02 236.753 430.412 237.561C429.804 238.369 429.5 239.521 429.5 241.017C429.5 241.809 429.568 242.489 429.704 243.057C429.84 243.617 430.04 244.081 430.304 244.449C430.568 244.809 430.892 245.073 431.276 245.241C431.66 245.409 432.096 245.493 432.584 245.493C433.288 245.493 433.9 245.333 434.42 245.013C434.948 244.693 435.432 244.241 435.872 243.657V237.789ZM438.008 229.377V247.053H436.736C436.432 247.053 436.24 246.905 436.16 246.609L435.968 245.133C435.448 245.757 434.856 246.261 434.192 246.645C433.528 247.029 432.76 247.221 431.888 247.221C431.192 247.221 430.56 247.089 429.992 246.825C429.424 246.553 428.94 246.157 428.54 245.637C428.14 245.117 427.832 244.469 427.616 243.693C427.4 242.917 427.292 242.025 427.292 241.017C427.292 240.121 427.412 239.289 427.652 238.521C427.892 237.745 428.236 237.073 428.684 236.505C429.132 235.937 429.68 235.493 430.328 235.173C430.984 234.845 431.72 234.681 432.536 234.681C433.28 234.681 433.916 234.809 434.444 235.065C434.98 235.313 435.456 235.661 435.872 236.109V229.377H438.008ZM443.95 229.857V236.721C443.95 237.081 443.942 237.433 443.926 237.777C443.91 238.121 443.89 238.469 443.866 238.821C443.842 239.165 443.81 239.521 443.77 239.889C443.738 240.249 443.698 240.637 443.65 241.053H442.21C442.162 240.637 442.118 240.249 442.078 239.889C442.046 239.521 442.018 239.165 441.994 238.821C441.97 238.469 441.95 238.121 441.934 237.777C441.918 237.433 441.91 237.081 441.91 236.721V229.857H443.95ZM441.394 245.733C441.394 245.525 441.43 245.329 441.502 245.145C441.582 244.961 441.69 244.801 441.826 244.665C441.962 244.529 442.118 244.421 442.294 244.341C442.478 244.261 442.678 244.221 442.894 244.221C443.102 244.221 443.294 244.261 443.47 244.341C443.654 244.421 443.814 244.529 443.95 244.665C444.086 244.801 444.194 244.961 444.274 245.145C444.354 245.329 444.394 245.525 444.394 245.733C444.394 245.949 444.354 246.149 444.274 246.333C444.194 246.509 444.086 246.665 443.95 246.801C443.814 246.937 443.654 247.041 443.47 247.113C443.294 247.193 443.102 247.233 442.894 247.233C442.678 247.233 442.478 247.193 442.294 247.113C442.118 247.041 441.962 246.937 441.826 246.801C441.69 246.665 441.582 246.509 441.502 246.333C441.43 246.149 441.394 245.949 441.394 245.733Z" fill="#79747E"/>
<path d="M382 266.25C396.611 266.25 411.223 266.299 425.833 266.236C430.861 266.215 435.89 266 440.917 266C442.642 266 439.399 266.94 439.347 266.958C426.382 271.663 411.166 272.172 399.694 280.472C398.579 281.279 396.549 282.848 397.417 283.917C398.915 285.762 405.069 284.205 406.694 283.958C410.721 283.348 414.717 282.576 418.75 282" stroke="#FFCB25" stroke-width="4" stroke-linecap="round"/>
<path d="M43.64 65.088C44.088 65.088 44.4827 65.0347 44.824 64.928C45.1707 64.816 45.4587 64.6613 45.688 64.464C45.9227 64.2613 46.0987 64.0213 46.216 63.744C46.3333 63.4667 46.392 63.16 46.392 62.824C46.392 62.1413 46.168 61.6267 45.72 61.28C45.272 60.9333 44.6 60.76 43.704 60.76H42.008V65.088H43.64ZM48.936 71H47.56C47.2773 71 47.0693 70.8907 46.936 70.672L43.96 66.576C43.8693 66.448 43.7707 66.3573 43.664 66.304C43.5627 66.2453 43.4027 66.216 43.184 66.216H42.008V71H40.464V59.536H43.704C44.4293 59.536 45.056 59.6107 45.584 59.76C46.112 59.904 46.5467 60.1147 46.888 60.392C47.2347 60.6693 47.4907 61.0053 47.656 61.4C47.8213 61.7893 47.904 62.2267 47.904 62.712C47.904 63.1173 47.84 63.496 47.712 63.848C47.584 64.2 47.3973 64.5173 47.152 64.8C46.912 65.0773 46.616 65.3147 46.264 65.512C45.9173 65.7093 45.5227 65.8587 45.08 65.96C45.2773 66.072 45.448 66.2347 45.592 66.448L48.936 71ZM55.0676 66.064C55.0676 65.7333 55.0196 65.432 54.9236 65.16C54.833 64.8827 54.697 64.6453 54.5156 64.448C54.3396 64.2453 54.1236 64.0907 53.8676 63.984C53.6116 63.872 53.321 63.816 52.9956 63.816C52.313 63.816 51.7716 64.016 51.3716 64.416C50.977 64.8107 50.7316 65.36 50.6356 66.064H55.0676ZM56.2196 69.864C56.0436 70.0773 55.833 70.264 55.5876 70.424C55.3423 70.5787 55.0783 70.7067 54.7956 70.808C54.5183 70.9093 54.2303 70.984 53.9316 71.032C53.633 71.0853 53.337 71.112 53.0436 71.112C52.4836 71.112 51.9663 71.0187 51.4916 70.832C51.0223 70.64 50.6143 70.3627 50.2676 70C49.9263 69.632 49.6596 69.1787 49.4676 68.64C49.2756 68.1013 49.1796 67.4827 49.1796 66.784C49.1796 66.2187 49.265 65.6907 49.4356 65.2C49.6116 64.7093 49.8623 64.2853 50.1876 63.928C50.513 63.5653 50.9103 63.2827 51.3796 63.08C51.849 62.872 52.377 62.768 52.9636 62.768C53.449 62.768 53.897 62.8507 54.3076 63.016C54.7236 63.176 55.081 63.4107 55.3796 63.72C55.6836 64.024 55.921 64.4027 56.0916 64.856C56.2623 65.304 56.3476 65.816 56.3476 66.392C56.3476 66.616 56.3236 66.7653 56.2756 66.84C56.2276 66.9147 56.137 66.952 56.0036 66.952H50.5876C50.6036 67.464 50.673 67.9093 50.7956 68.288C50.9236 68.6667 51.0996 68.984 51.3236 69.24C51.5476 69.4907 51.8143 69.68 52.1236 69.808C52.433 69.9307 52.7796 69.992 53.1636 69.992C53.521 69.992 53.8276 69.952 54.0836 69.872C54.345 69.7867 54.569 69.696 54.7556 69.6C54.9423 69.504 55.097 69.416 55.2196 69.336C55.3476 69.2507 55.457 69.208 55.5476 69.208C55.665 69.208 55.7556 69.2533 55.8196 69.344L56.2196 69.864ZM62.8168 64.232C62.7528 64.3493 62.6541 64.408 62.5208 64.408C62.4408 64.408 62.3501 64.3787 62.2488 64.32C62.1474 64.2613 62.0221 64.1973 61.8728 64.128C61.7288 64.0533 61.5554 63.9867 61.3528 63.928C61.1501 63.864 60.9101 63.832 60.6328 63.832C60.3928 63.832 60.1768 63.864 59.9848 63.928C59.7928 63.9867 59.6274 64.0693 59.4888 64.176C59.3554 64.2827 59.2514 64.408 59.1768 64.552C59.1074 64.6907 59.0728 64.8427 59.0728 65.008C59.0728 65.216 59.1314 65.3893 59.2488 65.528C59.3714 65.6667 59.5314 65.7867 59.7288 65.888C59.9261 65.9893 60.1501 66.08 60.4008 66.16C60.6514 66.2347 60.9074 66.3173 61.1688 66.408C61.4354 66.4933 61.6941 66.5893 61.9448 66.696C62.1954 66.8027 62.4194 66.936 62.6168 67.096C62.8141 67.256 62.9714 67.4533 63.0888 67.688C63.2114 67.9173 63.2728 68.1947 63.2728 68.52C63.2728 68.8933 63.2061 69.24 63.0728 69.56C62.9394 69.8747 62.7421 70.1493 62.4808 70.384C62.2194 70.6133 61.8994 70.7947 61.5208 70.928C61.1421 71.0613 60.7048 71.128 60.2088 71.128C59.6434 71.128 59.1314 71.0373 58.6728 70.856C58.2141 70.6693 57.8248 70.432 57.5048 70.144L57.8408 69.6C57.8834 69.5307 57.9341 69.4773 57.9928 69.44C58.0514 69.4027 58.1261 69.384 58.2168 69.384C58.3128 69.384 58.4141 69.4213 58.5208 69.496C58.6274 69.5707 58.7554 69.6533 58.9048 69.744C59.0594 69.8347 59.2461 69.9173 59.4648 69.992C59.6834 70.0667 59.9554 70.104 60.2808 70.104C60.5581 70.104 60.8008 70.0693 61.0087 70C61.2168 69.9253 61.3901 69.8267 61.5288 69.704C61.6674 69.5813 61.7688 69.44 61.8328 69.28C61.9021 69.12 61.9368 68.9493 61.9368 68.768C61.9368 68.544 61.8754 68.36 61.7528 68.216C61.6354 68.0667 61.4781 67.9413 61.2808 67.84C61.0834 67.7333 60.8568 67.6427 60.6008 67.568C60.3501 67.488 60.0914 67.4053 59.8248 67.32C59.5634 67.2347 59.3048 67.1387 59.0488 67.032C58.7981 66.92 58.5741 66.7813 58.3768 66.616C58.1794 66.4507 58.0194 66.248 57.8968 66.008C57.7794 65.7627 57.7208 65.4667 57.7208 65.12C57.7208 64.8107 57.7848 64.5147 57.9128 64.232C58.0408 63.944 58.2274 63.6933 58.4728 63.48C58.7181 63.2613 59.0194 63.088 59.3768 62.96C59.7341 62.832 60.1421 62.768 60.6008 62.768C61.1341 62.768 61.6114 62.8533 62.0328 63.024C62.4594 63.1893 62.8274 63.4187 63.1368 63.712L62.8168 64.232ZM71.6826 62.896V71H70.8346C70.632 71 70.504 70.9013 70.4506 70.704L70.3386 69.832C69.9866 70.2213 69.592 70.536 69.1546 70.776C68.7173 71.0107 68.216 71.128 67.6506 71.128C67.208 71.128 66.816 71.056 66.4746 70.912C66.1386 70.7627 65.856 70.5547 65.6266 70.288C65.3973 70.0213 65.224 69.6987 65.1066 69.32C64.9946 68.9413 64.9386 68.5227 64.9386 68.064V62.896H66.3626V68.064C66.3626 68.6773 66.5013 69.152 66.7786 69.488C67.0613 69.824 67.4906 69.992 68.0666 69.992C68.488 69.992 68.88 69.8933 69.2426 69.696C69.6106 69.4933 69.9493 69.216 70.2586 68.864V62.896H71.6826ZM73.9405 71V62.896H74.7965C74.9992 62.896 75.1245 62.9947 75.1725 63.192L75.2765 64.024C75.5752 63.656 75.9112 63.3547 76.2845 63.12C76.6578 62.8853 77.0898 62.768 77.5805 62.768C78.1245 62.768 78.5645 62.92 78.9005 63.224C79.2418 63.528 79.4872 63.9387 79.6365 64.456C79.7538 64.1627 79.9032 63.9093 80.0845 63.696C80.2712 63.4827 80.4792 63.3067 80.7085 63.168C80.9378 63.0293 81.1805 62.928 81.4365 62.864C81.6978 62.8 81.9618 62.768 82.2285 62.768C82.6552 62.768 83.0338 62.8373 83.3645 62.976C83.7005 63.1093 83.9832 63.3067 84.2125 63.568C84.4472 63.8293 84.6258 64.152 84.7485 64.536C84.8712 64.9147 84.9325 65.3493 84.9325 65.84V71H83.5005V65.84C83.5005 65.2053 83.3618 64.7253 83.0845 64.4C82.8072 64.0693 82.4072 63.904 81.8845 63.904C81.6498 63.904 81.4258 63.9467 81.2125 64.032C81.0045 64.112 80.8205 64.232 80.6605 64.392C80.5005 64.552 80.3725 64.7547 80.2765 65C80.1858 65.24 80.1405 65.52 80.1405 65.84V71H78.7085V65.84C78.7085 65.1893 78.5778 64.704 78.3165 64.384C78.0552 64.064 77.6738 63.904 77.1725 63.904C76.8205 63.904 76.4952 64 76.1965 64.192C75.8978 64.3787 75.6232 64.6347 75.3725 64.96V71H73.9405ZM92.5208 66.064C92.5208 65.7333 92.4728 65.432 92.3768 65.16C92.2861 64.8827 92.1501 64.6453 91.9688 64.448C91.7928 64.2453 91.5768 64.0907 91.3208 63.984C91.0648 63.872 90.7741 63.816 90.4488 63.816C89.7661 63.816 89.2248 64.016 88.8248 64.416C88.4301 64.8107 88.1848 65.36 88.0888 66.064H92.5208ZM93.6728 69.864C93.4968 70.0773 93.2861 70.264 93.0408 70.424C92.7954 70.5787 92.5314 70.7067 92.2488 70.808C91.9714 70.9093 91.6834 70.984 91.3848 71.032C91.0861 71.0853 90.7901 71.112 90.4968 71.112C89.9368 71.112 89.4194 71.0187 88.9448 70.832C88.4754 70.64 88.0674 70.3627 87.7208 70C87.3794 69.632 87.1128 69.1787 86.9208 68.64C86.7288 68.1013 86.6328 67.4827 86.6328 66.784C86.6328 66.2187 86.7181 65.6907 86.8888 65.2C87.0648 64.7093 87.3154 64.2853 87.6408 63.928C87.9661 63.5653 88.3634 63.2827 88.8328 63.08C89.3021 62.872 89.8301 62.768 90.4168 62.768C90.9021 62.768 91.3501 62.8507 91.7608 63.016C92.1768 63.176 92.5341 63.4107 92.8328 63.72C93.1368 64.024 93.3741 64.4027 93.5448 64.856C93.7154 65.304 93.8008 65.816 93.8008 66.392C93.8008 66.616 93.7768 66.7653 93.7288 66.84C93.6808 66.9147 93.5901 66.952 93.4568 66.952H88.0408C88.0568 67.464 88.1261 67.9093 88.2488 68.288C88.3768 68.6667 88.5528 68.984 88.7768 69.24C89.0008 69.4907 89.2674 69.68 89.5768 69.808C89.8861 69.9307 90.2328 69.992 90.6168 69.992C90.9741 69.992 91.2808 69.952 91.5368 69.872C91.7981 69.7867 92.0221 69.696 92.2088 69.6C92.3954 69.504 92.5501 69.416 92.6728 69.336C92.8008 69.2507 92.9101 69.208 93.0008 69.208C93.1181 69.208 93.2088 69.2533 93.2728 69.344L93.6728 69.864Z" fill="#79747E"/>
<path d="M67.5752 111L63.9932 100.979H66.1875L68.7237 108.396L71.1778 100.979H73.3242L69.7354 111H67.5752ZM74.3565 111V100.979H81.7871V102.674H76.3799V104.896H81.4112V106.584H76.3799V109.312H81.9785V111H74.3565ZM83.7012 111V100.979H87.96C89.031 100.979 89.808 101.07 90.291 101.252C90.7787 101.43 91.1683 101.749 91.46 102.209C91.7517 102.669 91.8975 103.196 91.8975 103.788C91.8975 104.54 91.6765 105.162 91.2344 105.654C90.7923 106.142 90.1315 106.45 89.252 106.577C89.6895 106.832 90.0495 107.113 90.3321 107.418C90.6192 107.723 91.0043 108.266 91.4873 109.045L92.711 111H90.291L88.8282 108.819C88.3086 108.04 87.9532 107.55 87.7617 107.35C87.5703 107.145 87.3675 107.006 87.1534 106.933C86.9392 106.855 86.5996 106.816 86.1348 106.816H85.7246V111H83.7012ZM85.7246 105.217H87.2217C88.1924 105.217 88.7985 105.176 89.0401 105.094C89.2816 105.012 89.4707 104.87 89.6075 104.67C89.7442 104.469 89.8125 104.219 89.8125 103.918C89.8125 103.581 89.7214 103.31 89.5391 103.104C89.3614 102.895 89.1084 102.763 88.7803 102.708C88.6162 102.685 88.1241 102.674 87.3037 102.674H85.7246V105.217ZM93.75 111V100.979H95.7735V111H93.75ZM97.7217 111V100.979H104.592V102.674H99.7451V105.046H103.929V106.741H99.7451V111H97.7217ZM106.205 111V100.979H108.229V111H106.205ZM110.163 111V100.979H117.594V102.674H112.187V104.896H117.218V106.584H112.187V109.312H117.785V111H110.163ZM119.494 100.979H123.192C124.026 100.979 124.662 101.042 125.1 101.17C125.688 101.343 126.191 101.651 126.61 102.093C127.03 102.535 127.349 103.077 127.567 103.72C127.786 104.358 127.896 105.146 127.896 106.085C127.896 106.91 127.793 107.621 127.588 108.218C127.337 108.947 126.98 109.537 126.515 109.988C126.164 110.33 125.69 110.597 125.093 110.788C124.646 110.929 124.049 111 123.302 111H119.494V100.979ZM121.518 102.674V109.312H123.028C123.593 109.312 124.001 109.28 124.252 109.216C124.58 109.134 124.851 108.995 125.065 108.799C125.284 108.603 125.462 108.282 125.599 107.835C125.735 107.384 125.804 106.771 125.804 105.996C125.804 105.221 125.735 104.627 125.599 104.212C125.462 103.797 125.271 103.474 125.024 103.241C124.778 103.009 124.466 102.852 124.088 102.77C123.805 102.706 123.252 102.674 122.427 102.674H121.518Z" fill="#003FE0"/>
<path d="M36.4829 102.361C36.3337 101.689 36.3566 100.99 36.5496 100.329C36.7426 99.6673 37.0994 99.0656 37.5869 98.579C38.0745 98.0925 38.677 97.7369 39.3386 97.5453C40.0002 97.3537 40.6995 97.3323 41.3716 97.4829C41.7415 96.9044 42.2511 96.4283 42.8535 96.0985C43.4558 95.7687 44.1315 95.5958 44.8182 95.5958C45.5049 95.5958 46.1805 95.7687 46.7829 96.0985C47.3852 96.4283 47.8948 96.9044 48.2648 97.4829C48.9379 97.3316 49.6384 97.353 50.301 97.545C50.9637 97.7371 51.567 98.0937 52.0548 98.5815C52.5427 99.0694 52.8992 99.6727 53.0913 100.335C53.2834 100.998 53.3047 101.698 53.1534 102.372C53.7319 102.742 54.2081 103.251 54.5379 103.853C54.8677 104.456 55.0405 105.131 55.0405 105.818C55.0405 106.505 54.8677 107.181 54.5379 107.783C54.2081 108.385 53.7319 108.895 53.1534 109.265C53.3041 109.937 53.2826 110.636 53.091 111.298C52.8994 111.959 52.5439 112.562 52.0573 113.049C51.5708 113.537 50.969 113.894 50.3078 114.087C49.6466 114.28 48.9474 114.303 48.275 114.153C47.9055 114.734 47.3955 115.212 46.7922 115.544C46.1888 115.875 45.5116 116.049 44.8233 116.049C44.135 116.049 43.4578 115.875 42.8544 115.544C42.251 115.212 41.741 114.734 41.3716 114.153C40.6995 114.304 40.0002 114.283 39.3386 114.091C38.677 113.899 38.0745 113.544 37.5869 113.057C37.0994 112.571 36.7426 111.969 36.5496 111.308C36.3566 110.647 36.3337 109.947 36.4829 109.275C35.8999 108.906 35.4197 108.396 35.087 107.791C34.7542 107.187 34.5797 106.508 34.5797 105.818C34.5797 105.128 34.7542 104.45 35.087 103.845C35.4197 103.241 35.8999 102.73 36.4829 102.361Z" stroke="#003FE0" stroke-linecap="round" stroke-linejoin="round"/>
<path d="M41.75 105.818L43.7955 107.864L47.8864 103.773" stroke="#003FE0" stroke-linecap="round" stroke-linejoin="round"/>
<circle cx="414.588" cy="144.661" r="40.7163" fill="#F6F6F6" stroke="#797D8A"/>
<path d="M437.937 113.143C442.655 119.652 445.451 127.602 445.451 136.208C445.451 157.919 427.846 175.524 406.135 175.524C397.529 175.524 389.578 172.729 383.069 168.011C390.234 177.84 401.766 184.261 414.872 184.261C436.583 184.261 454.188 166.656 454.188 144.945C454.188 131.84 447.766 120.307 437.937 113.143Z" fill="#E7E6E6"/>
<path d="M411.833 159.093C411.318 159.093 410.804 158.895 410.447 158.499L399.438 147.49C398.646 146.698 398.646 145.471 399.438 144.679C400.23 143.887 401.458 143.887 402.25 144.679L411.714 154.143L428.663 132.759C429.336 131.888 430.604 131.769 431.435 132.442C432.306 133.115 432.425 134.383 431.752 135.214L413.417 158.341C413.061 158.776 412.546 159.053 411.992 159.093C411.912 159.093 411.873 159.093 411.833 159.093Z" fill="#003FE0"/>
</svg>
