<svg width="20" height="20" viewBox="0 0 20 20" fill="none" xmlns="http://www.w3.org/2000/svg">
<g clip-path="url(#clip0_928_20283)">
<path d="M10 0C4.47737 0 0 4.47737 0 10C0 15.5226 4.47737 20 10 20C15.5226 20 20 15.5226 20 10C20 4.47737 15.5231 0 10 0ZM10.0839 16.7426C9.08636 16.7426 8.14016 16.5243 7.28845 16.1354C7.05362 16.822 6.76604 17.5797 6.75595 17.6081C6.68027 17.8324 6.50644 17.9773 6.50644 17.9773C6.50644 17.9773 6.56607 17.7847 6.89676 16.7422C6.92611 16.6495 7.03665 16.3175 7.12287 16.0579C4.88327 14.9612 3.34082 12.6606 3.34082 9.99954C3.34082 6.27574 6.35968 3.25689 10.0835 3.25689C13.8073 3.25689 16.8261 6.27574 16.8261 9.99954C16.8261 13.7233 13.8077 16.7426 10.0839 16.7426Z" fill="#555759"/>
<path d="M0.905273 9.56186L0.975906 8.9413C0.98829 8.83077 1.0048 8.74913 1.0204 8.69271C1.04333 8.61383 1.07635 8.54778 1.11946 8.49916C1.16487 8.44825 1.22266 8.41064 1.29559 8.38404C1.36576 8.35973 1.44373 8.34964 1.524 8.35882C1.66434 8.37487 1.77855 8.43449 1.86477 8.53494C1.95146 8.63309 1.98127 8.79958 1.95467 9.03395L1.90697 9.45454L2.57569 9.53067L2.55092 9.74899L0.905273 9.56186ZM1.76204 9.00735C1.77809 8.867 1.76204 8.76289 1.71571 8.69959C1.67214 8.63401 1.59967 8.59548 1.50519 8.58493C1.43639 8.57713 1.37677 8.5886 1.32219 8.6175C1.2699 8.64639 1.23275 8.68859 1.20982 8.74454C1.19652 8.78032 1.18413 8.84636 1.17313 8.94543L1.12543 9.36602L1.71388 9.43298L1.76204 9.00735Z" fill="white"/>
<path d="M1.3982 7.71173C1.29822 7.52231 1.28354 7.31729 1.35784 7.09576C1.406 6.95082 1.48535 6.83112 1.5945 6.73847C1.70137 6.6449 1.82704 6.58941 1.97243 6.57014C2.11599 6.5495 2.26643 6.56601 2.42421 6.61876C2.58428 6.67242 2.71591 6.75269 2.81957 6.85818C2.92322 6.96367 2.98881 7.08796 3.01312 7.22785C3.03788 7.36545 3.02825 7.5035 2.98285 7.63972C2.93285 7.78878 2.85396 7.90849 2.74251 8.00068C2.63335 8.09333 2.50539 8.14837 2.36229 8.16855C2.21965 8.18689 2.07792 8.17359 1.93941 8.12727C1.68073 8.04058 1.50048 7.90207 1.3982 7.71173ZM2.51456 7.90941C2.65583 7.84428 2.75306 7.73558 2.80443 7.58193C2.85672 7.42645 2.84479 7.27876 2.76911 7.14117C2.69344 7.00357 2.55446 6.90129 2.35266 6.83387C2.22332 6.79075 2.10407 6.77516 1.99583 6.78525C1.88667 6.79763 1.79081 6.83616 1.71054 6.90221C1.63028 6.96779 1.57295 7.05127 1.53855 7.15447C1.48947 7.30124 1.49727 7.44571 1.56286 7.58468C1.62799 7.72595 1.77934 7.83511 2.01601 7.91399C2.20451 7.97637 2.37054 7.97591 2.51456 7.90941Z" fill="white"/>
<path d="M1.79297 5.95452L1.91405 5.76602L2.96299 6.13982C3.07536 6.1788 3.18131 6.21917 3.28772 6.2632C3.16021 6.13202 3.08729 6.05726 3.07077 6.03616L2.29886 5.16656L2.4415 4.94457L3.27487 5.19637C3.48127 5.26012 3.67023 5.32938 3.83764 5.40689C3.76242 5.33121 3.67665 5.24269 3.57896 5.14179L2.82402 4.34878L2.94419 4.16211L4.09128 5.44037L3.97753 5.61741L2.72816 5.23031C2.62359 5.19637 2.55938 5.17665 2.53736 5.16793C2.58965 5.22343 2.63551 5.27205 2.6745 5.31379L3.54502 6.29072L3.42394 6.47968L1.79297 5.95452Z" fill="white"/>
<path d="M3.29199 3.82361L4.15288 2.99023L4.28956 3.1315L3.58691 3.81214L3.93915 4.17585L4.59686 3.53878L4.73216 3.67867L4.07399 4.31574L4.4666 4.72119L5.19632 4.01486L5.33116 4.15429L4.44413 5.01335L3.29199 3.82361Z" fill="white"/>
<path d="M4.60107 2.63013L5.21842 2.23477C5.34317 2.15496 5.44545 2.10864 5.52663 2.08984C5.6069 2.07378 5.68625 2.08617 5.76651 2.12561C5.8454 2.16322 5.90961 2.22055 5.95823 2.29669C6.02198 2.39576 6.04262 2.50079 6.02381 2.60903C6.00317 2.71865 5.93117 2.82506 5.80825 2.92871C5.872 2.92091 5.92383 2.92046 5.96419 2.92779C6.04996 2.94155 6.14261 2.96999 6.23663 3.01402L6.72142 3.23922L6.48981 3.38782L6.12105 3.21491C6.01281 3.16629 5.92704 3.13052 5.86329 3.10804C5.80091 3.0874 5.74954 3.0764 5.71101 3.0764C5.67111 3.07456 5.63671 3.08007 5.60369 3.09291C5.57846 3.10071 5.54406 3.11997 5.49545 3.15116L5.28126 3.28829L5.67799 3.90748L5.49499 4.02489L4.60107 2.63013ZM5.57571 2.87367C5.65964 2.82001 5.72064 2.77002 5.75825 2.72094C5.79357 2.67324 5.81008 2.62187 5.81146 2.56867C5.81192 2.51363 5.79724 2.46501 5.76743 2.41869C5.72615 2.35448 5.6679 2.31458 5.59176 2.30311C5.51746 2.29027 5.42802 2.31733 5.32483 2.38337L4.88269 2.66682L5.17852 3.12822L5.57571 2.87367Z" fill="white"/>
<path d="M6.23584 1.66154L7.35312 1.22949L7.42375 1.41249L6.51149 1.76566L6.69449 2.23807L7.5485 1.90738L7.61822 2.08855L6.76421 2.41924L6.96785 2.94531L7.91451 2.57931L7.98468 2.76002L6.83301 3.20583L6.23584 1.66154Z" fill="white"/>
<path d="M7.90332 1.07306L8.46655 0.977199C8.59176 0.955643 8.69174 0.948304 8.76008 0.950597C8.85732 0.957477 8.944 0.982703 9.01968 1.02811C9.11875 1.08636 9.1981 1.16662 9.26093 1.27303C9.32377 1.3799 9.36596 1.50373 9.39073 1.64958C9.41229 1.7748 9.41687 1.88671 9.40357 1.98761C9.39027 2.08851 9.36688 2.17199 9.33248 2.24354C9.29762 2.3128 9.25589 2.3715 9.20956 2.41691C9.16095 2.46277 9.10178 2.50084 9.02748 2.53249C8.95547 2.56368 8.87016 2.58753 8.77017 2.6045L8.18218 2.70448L7.90332 1.07306ZM8.71422 2.41737C8.82154 2.39902 8.90364 2.37334 8.96189 2.34215C9.02014 2.31325 9.06325 2.27564 9.09352 2.23299C9.13526 2.17428 9.16461 2.09906 9.177 2.00733C9.19168 1.9156 9.18755 1.80828 9.16691 1.68536C9.13801 1.51428 9.08802 1.38678 9.01509 1.30559C8.94492 1.2235 8.86603 1.17396 8.78072 1.15562C8.71743 1.14277 8.62478 1.14919 8.49498 1.17167L8.15283 1.22992L8.36518 2.47699L8.71422 2.41737Z" fill="white"/>
<path d="M10.4911 0.818359L11.1098 0.884405C11.2341 0.897706 11.3336 0.924767 11.4056 0.967421C11.4781 1.00778 11.5322 1.06695 11.5684 1.14079C11.6047 1.21464 11.618 1.28802 11.6097 1.3637C11.6024 1.43479 11.5767 1.49946 11.5308 1.55771C11.4873 1.61596 11.4244 1.66045 11.3423 1.68888C11.4382 1.72924 11.5111 1.78612 11.5565 1.86317C11.6019 1.94022 11.6203 2.02599 11.6102 2.12002C11.6019 2.19799 11.5781 2.2677 11.5386 2.331C11.4969 2.39383 11.4524 2.44061 11.4001 2.4718C11.3483 2.50116 11.2855 2.52225 11.2121 2.53326C11.1364 2.54381 11.0483 2.54335 10.9424 2.53234L10.3149 2.46492L10.4911 0.818359ZM10.963 2.33879C11.0341 2.34659 11.0832 2.34705 11.1135 2.34567C11.1625 2.34154 11.2079 2.33237 11.2423 2.3154C11.2795 2.29614 11.3102 2.26908 11.335 2.23238C11.3625 2.1934 11.379 2.14891 11.3845 2.09571C11.3909 2.03562 11.3804 1.9815 11.3533 1.93197C11.3263 1.88243 11.2859 1.84574 11.2327 1.82143C11.1795 1.79712 11.1002 1.77924 10.9942 1.76823L10.6149 1.72741L10.5539 2.29522L10.963 2.33879ZM10.9919 1.57193C11.0882 1.58202 11.1584 1.58293 11.2006 1.57559C11.2575 1.56321 11.302 1.54211 11.3359 1.50634C11.3675 1.4701 11.3864 1.42562 11.3923 1.36828C11.3983 1.31325 11.3896 1.26325 11.3689 1.21922C11.346 1.17473 11.3121 1.14125 11.2653 1.12199C11.2185 1.10089 11.1341 1.08484 11.0171 1.07245L10.6883 1.03714L10.6351 1.53386L10.9919 1.57193Z" fill="white"/>
<path d="M12.4114 2.11346L12.0835 1.0127L12.3376 1.09112L12.5018 1.6649C12.5344 1.77177 12.5591 1.87863 12.5807 1.98229C12.6545 1.91578 12.7389 1.83781 12.8389 1.75709L13.2902 1.38558L13.5333 1.4608L12.6215 2.17905L12.4146 2.84868L12.2046 2.78401L12.4114 2.11346Z" fill="white"/>
<path d="M8.69043 19.3964L9.68846 17.2412L9.91733 17.2513L10.7209 19.4849L10.4241 19.4721L10.1925 18.8181L9.27154 18.7777L8.98672 19.4093L8.69043 19.3964ZM9.7889 17.5678L9.33667 18.5635L10.1402 18.5984L9.7889 17.5678Z" fill="white"/>
<path d="M11.3181 19.3983L10.8755 17.2468L11.7726 17.0624C11.8676 17.0427 11.9588 17.0445 12.0469 17.0674C12.1349 17.0904 12.2143 17.1289 12.2854 17.1826C12.3565 17.2362 12.4166 17.3009 12.4656 17.3761C12.5147 17.4513 12.5482 17.5311 12.5656 17.616C12.584 17.705 12.5863 17.794 12.573 17.8829C12.5597 17.9719 12.5317 18.0545 12.4895 18.1306C12.4473 18.2067 12.3913 18.2719 12.3212 18.326C12.2514 18.3806 12.1689 18.4173 12.0739 18.437L11.4314 18.5691L11.5905 19.3419L11.3181 19.3983ZM11.3818 18.3274L12.0088 18.198C12.0652 18.1866 12.1139 18.1645 12.1547 18.1315C12.1955 18.099 12.2276 18.0586 12.2514 18.0104C12.2753 17.9623 12.2904 17.9091 12.2978 17.8508C12.3046 17.7926 12.3019 17.733 12.2895 17.6724C12.2767 17.6096 12.2537 17.5536 12.2216 17.5032C12.1891 17.4527 12.151 17.4114 12.1074 17.378C12.0639 17.3449 12.0157 17.322 11.9639 17.3096C11.9116 17.2972 11.8593 17.2963 11.807 17.3073L11.1979 17.4325L11.3818 18.3274Z" fill="white"/>
<path d="M13.1052 19.0163L13.0103 16.6433L13.2185 16.5479L14.9526 18.1687L14.6825 18.2926L14.178 17.816L13.34 18.2004L13.3749 18.8925L13.1052 19.0163ZM13.2483 16.8882L13.3001 17.9807L14.0312 17.6454L13.2483 16.8882Z" fill="white"/>
<path d="M14.4873 17.1358C14.4006 17.0299 14.3332 16.9092 14.2846 16.7739C14.236 16.6386 14.2135 16.4997 14.2172 16.3575C14.2209 16.2153 14.2539 16.0759 14.3163 15.9396C14.3786 15.8034 14.4759 15.681 14.608 15.5727C14.7648 15.4443 14.929 15.37 15.0996 15.3489C15.2702 15.3283 15.4294 15.3526 15.5771 15.4218L15.4941 15.6801C15.4216 15.6457 15.3514 15.6241 15.2831 15.6168C15.2148 15.609 15.1492 15.6117 15.0868 15.6246C15.024 15.6369 14.9657 15.6576 14.9111 15.6856C14.8565 15.7135 14.807 15.7456 14.7625 15.7823C14.6648 15.8621 14.5951 15.9529 14.5529 16.0548C14.5107 16.1566 14.4905 16.2616 14.4928 16.3685C14.4951 16.4758 14.5167 16.5808 14.558 16.6836C14.5992 16.7863 14.6538 16.879 14.7212 16.962C14.7969 17.0546 14.8841 17.1303 14.9831 17.1886C15.0817 17.2473 15.1849 17.2863 15.2923 17.306C15.3996 17.3257 15.506 17.3243 15.6115 17.3018C15.717 17.2789 15.8133 17.2321 15.9014 17.1601C15.9477 17.1225 15.9903 17.0776 16.0298 17.0262C16.0692 16.9748 16.1004 16.918 16.1243 16.856C16.1481 16.7937 16.1632 16.7276 16.1706 16.657C16.1775 16.5863 16.1715 16.5139 16.1513 16.4387L16.4205 16.3882C16.4462 16.4772 16.4549 16.568 16.4458 16.6593C16.4366 16.751 16.4141 16.84 16.3788 16.9267C16.3435 17.0134 16.2976 17.095 16.2417 17.1711C16.1853 17.2473 16.1233 17.3133 16.0555 17.3688C15.9348 17.4674 15.8023 17.5316 15.6583 17.561C15.5143 17.5908 15.3707 17.5926 15.2276 17.5679C15.0845 17.5431 14.9483 17.4926 14.8194 17.4174C14.6896 17.3422 14.5791 17.2482 14.4873 17.1358Z" fill="white"/>
<path d="M16.5175 13.4805L18.309 14.7514L18.148 14.9784L17.333 14.4005L16.6331 15.3871L17.4481 15.965L17.2871 16.192L15.4956 14.9211L15.6566 14.6941L16.4313 15.2435L17.1312 14.257L16.3565 13.7075L16.5175 13.4805Z" fill="white"/>
<path d="M18.9776 12.407L19.2093 12.4942L18.6836 13.8898L16.6284 13.1152L17.1439 11.7461L17.3756 11.8332L16.9577 12.9418L17.6237 13.1927L17.9869 12.2286L18.2043 12.3107L17.8411 13.2748L18.5502 13.5417L18.9776 12.407Z" fill="white"/>
<path d="M18.0679 6.07884C18.0715 6.4109 17.8055 6.68334 17.4734 6.68701C17.1414 6.69068 16.8689 6.42466 16.8653 6.0926C16.8616 5.76053 17.1276 5.48809 17.4597 5.48442C17.7917 5.48029 18.0642 5.74677 18.0679 6.07884Z" fill="white"/>
<path d="M4.36473 15.4958C4.3684 15.8279 4.10238 16.1003 3.77032 16.104C3.43826 16.1077 3.16582 15.8417 3.16215 15.5096C3.15848 15.1775 3.4245 14.9051 3.75656 14.9014C4.08862 14.8973 4.36106 15.1633 4.36473 15.4958Z" fill="white"/>
<path d="M13.7309 6.05072H13.586V6.458H13.519V6.05072H13.375V5.98926H13.7309V6.05072ZM14.2891 6.458H14.2276V6.08649L14.068 6.40892H14.0258L13.8662 6.08649V6.458H13.8048V5.98926H13.885L14.0469 6.31628L14.2079 5.98926H14.2896V6.458H14.2891Z" fill="#6D6E71"/>
<path d="M12.1098 4.63336C11.8979 4.75858 11.5466 5.1122 11.127 5.62451L11.5127 6.35239C11.7833 5.96529 12.0585 5.61671 12.336 5.31951C12.3575 5.29612 12.3685 5.28465 12.3685 5.28465C12.3575 5.29612 12.347 5.30804 12.336 5.31951C12.2465 5.41858 11.9741 5.73596 11.5631 6.36707C11.9585 6.34735 12.5667 6.26663 13.0625 6.18177C13.2102 5.35528 12.918 4.97735 12.918 4.97735C12.918 4.97735 12.546 4.37606 12.1098 4.63336Z" fill="url(#paint0_linear_928_20283)"/>
<path d="M10.8144 10.7471C10.7653 10.7558 10.7144 10.765 10.6625 10.7737C10.6621 10.7737 10.6621 10.7741 10.6616 10.7741C10.6878 10.7705 10.7139 10.7663 10.7391 10.7617C10.7644 10.7572 10.7896 10.7521 10.8144 10.7471Z" fill="#BE202E"/>
<path opacity="0.35" d="M10.8144 10.7471C10.7653 10.7558 10.7144 10.765 10.6625 10.7737C10.6621 10.7737 10.6621 10.7741 10.6616 10.7741C10.6878 10.7705 10.7139 10.7663 10.7391 10.7617C10.7644 10.7572 10.7896 10.7521 10.8144 10.7471Z" fill="#BE202E"/>
<path d="M10.9433 10.1105C10.9428 10.1109 10.9424 10.1109 10.9424 10.1109C10.9506 10.11 10.9584 10.1086 10.9667 10.1073C10.9993 10.1027 11.0318 10.0967 11.063 10.0898C11.024 10.0967 10.9841 10.1036 10.9433 10.1105Z" fill="#BE202E"/>
<path opacity="0.35" d="M10.9433 10.1105C10.9428 10.1109 10.9424 10.1109 10.9424 10.1109C10.9506 10.11 10.9584 10.1086 10.9667 10.1073C10.9993 10.1027 11.0318 10.0967 11.063 10.0898C11.024 10.0967 10.9841 10.1036 10.9433 10.1105Z" fill="#BE202E"/>
<path d="M10.3757 8.23336C10.4932 8.01458 10.6115 7.79993 10.7317 7.5917C10.8564 7.37522 10.9821 7.16515 11.1096 6.96243C11.1169 6.95051 11.1247 6.93858 11.1321 6.92666C11.2577 6.7276 11.3848 6.53588 11.5127 6.35288L11.127 5.625C11.0981 5.66032 11.0688 5.69655 11.0394 5.73324C10.928 5.87175 10.8128 6.02082 10.6941 6.17905C10.5606 6.35747 10.423 6.54735 10.284 6.74732C10.1551 6.9317 10.0249 7.12479 9.89416 7.32522C9.78271 7.49538 9.67126 7.67059 9.56072 7.85038C9.5566 7.85726 9.55247 7.86368 9.54834 7.87056L10.0501 8.86217C10.1574 8.64844 10.2657 8.43883 10.3757 8.23336Z" fill="url(#paint1_linear_928_20283)"/>
<path d="M8.08953 13.8194C8.02303 14.0019 7.95652 14.1882 7.88956 14.3776C7.88864 14.3803 7.88772 14.3831 7.88681 14.3858C7.87717 14.4124 7.868 14.4395 7.85837 14.4666C7.81342 14.5945 7.77398 14.7096 7.68408 14.972C7.83177 15.0394 7.95056 15.2169 8.06293 15.4183C8.051 15.2096 7.96478 15.0137 7.80058 14.8619C8.52984 14.8949 9.15773 14.7106 9.482 14.1776C9.51089 14.1299 9.5375 14.0804 9.56181 14.0272C9.41412 14.2143 9.23158 14.2937 8.88667 14.2744C9.39394 14.0474 9.64803 13.8295 9.87323 13.4685C9.92643 13.3828 9.97826 13.2892 10.0315 13.1855C9.58841 13.641 9.07426 13.7703 8.53305 13.6722L8.12714 13.7167C8.1143 13.7511 8.10191 13.785 8.08953 13.8194Z" fill="url(#paint2_linear_928_20283)"/>
<path d="M8.27899 12.9097C8.36659 12.6832 8.45694 12.4538 8.55005 12.2227C8.63903 12.0011 8.72984 11.7782 8.82341 11.5544C8.91651 11.3301 9.01191 11.1059 9.10915 10.8811C9.20821 10.6527 9.30912 10.4243 9.41232 10.1973C9.51414 9.97252 9.61779 9.74916 9.72328 9.52809C9.76135 9.44828 9.79942 9.36893 9.83794 9.28959C9.90445 9.15291 9.97141 9.01715 10.0393 8.8823C10.043 8.87497 10.0466 8.86809 10.0503 8.86075L9.54853 7.86914C9.54028 7.88244 9.53202 7.8962 9.52377 7.9095C9.40681 8.1003 9.29031 8.29569 9.17611 8.4952C9.06053 8.69655 8.94724 8.90203 8.83671 9.11025C8.74314 9.28592 8.65187 9.46296 8.56335 9.64183C8.54546 9.67807 8.52803 9.7143 8.5106 9.75007C8.40145 9.97527 8.30238 10.1927 8.21294 10.4018C8.11158 10.6389 8.0226 10.8651 7.94463 11.0797C7.89326 11.221 7.84648 11.3572 7.80382 11.4879C7.7685 11.5998 7.73548 11.7117 7.70338 11.8232C7.62862 12.086 7.56395 12.3479 7.51074 12.6093L8.0148 13.6046C8.08131 13.4266 8.14965 13.2459 8.22028 13.0629C8.23908 13.0125 8.25926 12.9611 8.27899 12.9097Z" fill="url(#paint3_linear_928_20283)"/>
<path d="M7.5037 12.6447C7.4404 12.9635 7.39546 13.2804 7.37298 13.5959C7.37207 13.6069 7.37115 13.618 7.37023 13.629C7.21291 13.3767 6.79141 13.1304 6.79233 13.1327C7.09412 13.5698 7.32299 14.0041 7.35693 14.4307C7.19548 14.4637 6.97396 14.416 6.71849 14.322C6.98496 14.5669 7.18539 14.6348 7.26336 14.6527C7.01844 14.6678 6.76343 14.8361 6.50613 15.0301C6.88222 14.877 7.18539 14.816 7.40325 14.8655C7.05835 15.842 6.71252 16.9193 6.3667 18.0637C6.47265 18.032 6.53594 17.9614 6.57126 17.8646C6.63272 17.6573 7.04184 16.2979 7.68257 14.5109C7.70092 14.46 7.71927 14.4091 7.73761 14.3578C7.74266 14.3435 7.74816 14.3293 7.75321 14.3146C7.82109 14.1275 7.89126 13.9358 7.96373 13.7409C7.98024 13.6964 7.99675 13.6519 8.01372 13.6074C8.01418 13.6065 8.01418 13.6056 8.01464 13.6047L7.51058 12.6094C7.50874 12.6213 7.50599 12.6332 7.5037 12.6447Z" fill="url(#paint4_linear_928_20283)"/>
<path d="M10.1281 8.94478C10.1138 8.97413 10.0992 9.00395 10.0845 9.03376C10.0409 9.12319 9.99688 9.21493 9.95239 9.30849C9.90423 9.40985 9.85561 9.51305 9.80654 9.619C9.78177 9.6722 9.757 9.72586 9.73178 9.78044C9.65656 9.94372 9.58042 10.112 9.50337 10.2863C9.40843 10.5001 9.31165 10.7225 9.21396 10.9532C9.12039 11.1729 9.02545 11.4009 8.92959 11.6362C8.83832 11.8595 8.74613 12.0902 8.65257 12.3287C8.56909 12.5411 8.48516 12.7589 8.40031 12.9828C8.39618 12.9933 8.39205 13.0043 8.38793 13.0153C8.30353 13.2378 8.21868 13.4662 8.13292 13.7005C8.13108 13.7061 8.12879 13.7111 8.12695 13.7166L8.53286 13.6721C8.5246 13.6707 8.51681 13.6698 8.50855 13.668C8.99381 13.6074 9.63913 13.2451 10.056 12.7975C10.2482 12.5911 10.4225 12.348 10.584 12.0632C10.7041 11.8513 10.8165 11.616 10.9238 11.3559C11.0178 11.1284 11.1077 10.8826 11.1944 10.6156C11.083 10.6744 10.9555 10.7175 10.8142 10.7473C10.7894 10.7523 10.7642 10.7574 10.739 10.762C10.7133 10.7665 10.6876 10.7707 10.6615 10.7743C10.6619 10.7743 10.6619 10.7739 10.6624 10.7739C11.1151 10.6001 11.4004 10.2639 11.6077 9.85199C11.4889 9.93318 11.2953 10.0396 11.0632 10.0905C11.0316 10.0974 10.9995 10.1029 10.9669 10.1079C10.9587 10.1093 10.9509 10.1107 10.9426 10.1116C10.9431 10.1116 10.9431 10.1116 10.9435 10.1111H10.944C11.1009 10.0455 11.2334 9.9717 11.3485 9.88502C11.3733 9.86621 11.3971 9.84741 11.4201 9.82723C11.4554 9.79696 11.4884 9.76485 11.5205 9.73137C11.5407 9.70981 11.5609 9.6878 11.5797 9.66486C11.6246 9.6112 11.6668 9.55341 11.7063 9.49058C11.7182 9.47131 11.7301 9.45159 11.7421 9.43187C11.7572 9.40251 11.7714 9.37408 11.7856 9.34656C11.8489 9.21951 11.8994 9.10622 11.9397 9.0067C11.9599 8.95716 11.9773 8.91084 11.9925 8.86818C11.9984 8.85121 12.0044 8.8347 12.0094 8.81865C12.0255 8.77095 12.0383 8.7283 12.0489 8.69114C12.064 8.63519 12.0737 8.5907 12.0787 8.55859C12.0636 8.57052 12.0457 8.5829 12.026 8.59437C11.8893 8.67601 11.6549 8.75031 11.4659 8.78517C11.4632 8.78563 11.4604 8.78609 11.4577 8.787C11.4389 8.79021 11.4196 8.79297 11.4008 8.79618C11.404 8.7948 11.4072 8.79297 11.4104 8.79159L10.1354 8.93148C10.1326 8.93515 10.1303 8.93973 10.1281 8.94478Z" fill="url(#paint5_linear_928_20283)"/>
<path d="M11.563 6.36739C11.4498 6.54122 11.3259 6.7389 11.1924 6.96273C11.1856 6.97419 11.1782 6.98658 11.1713 6.99804C11.0562 7.19159 10.9342 7.40441 10.8058 7.6374C10.6948 7.83875 10.5792 8.05432 10.4591 8.2864C10.3545 8.48866 10.2462 8.70331 10.1353 8.92989L11.4103 8.79C11.7818 8.61938 11.9478 8.46481 12.1088 8.24099C12.1515 8.17953 12.1946 8.11486 12.2373 8.04836C12.3684 7.8438 12.4969 7.6186 12.6115 7.39523C12.7225 7.17921 12.8202 6.96456 12.895 6.77193C12.9427 6.64901 12.9812 6.5348 13.0073 6.43436C13.0307 6.34584 13.0486 6.2619 13.0628 6.18164C12.5666 6.26695 11.9584 6.34767 11.563 6.36739Z" fill="url(#paint6_linear_928_20283)"/>
</g>
<defs>
<linearGradient id="paint0_linear_928_20283" x1="11.4539" y1="5.71377" x2="14.2794" y2="4.92821" gradientUnits="userSpaceOnUse">
<stop stop-color="#F69923"/>
<stop offset="0.3123" stop-color="#F79A23"/>
<stop offset="0.8383" stop-color="#E97826"/>
</linearGradient>
<linearGradient id="paint1_linear_928_20283" x1="5.26964" y1="18.3941" x2="11.0164" y2="6.06979" gradientUnits="userSpaceOnUse">
<stop offset="0.3233" stop-color="#9E2064"/>
<stop offset="0.6302" stop-color="#C92037"/>
<stop offset="0.7514" stop-color="#CD2335"/>
<stop offset="1" stop-color="#E97826"/>
</linearGradient>
<linearGradient id="paint2_linear_928_20283" x1="7.19917" y1="17.4834" x2="10.6237" y2="10.1393" gradientUnits="userSpaceOnUse">
<stop stop-color="#282662"/>
<stop offset="0.0954839" stop-color="#662E8D"/>
<stop offset="0.7882" stop-color="#9F2064"/>
<stop offset="0.9487" stop-color="#CD2032"/>
</linearGradient>
<linearGradient id="paint3_linear_928_20283" x1="5.4773" y1="17.6483" x2="11.224" y2="5.324" gradientUnits="userSpaceOnUse">
<stop offset="0.3233" stop-color="#9E2064"/>
<stop offset="0.6302" stop-color="#C92037"/>
<stop offset="0.7514" stop-color="#CD2335"/>
<stop offset="1" stop-color="#E97826"/>
</linearGradient>
<linearGradient id="paint4_linear_928_20283" x1="6.06346" y1="16.8278" x2="9.08354" y2="10.351" gradientUnits="userSpaceOnUse">
<stop stop-color="#282662"/>
<stop offset="0.0954839" stop-color="#662E8D"/>
<stop offset="0.7882" stop-color="#9F2064"/>
<stop offset="0.9487" stop-color="#CD2032"/>
</linearGradient>
<linearGradient id="paint5_linear_928_20283" x1="6.75307" y1="18.2436" x2="12.4998" y2="5.91932" gradientUnits="userSpaceOnUse">
<stop offset="0.3233" stop-color="#9E2064"/>
<stop offset="0.6302" stop-color="#C92037"/>
<stop offset="0.7514" stop-color="#CD2335"/>
<stop offset="1" stop-color="#E97826"/>
</linearGradient>
<linearGradient id="paint6_linear_928_20283" x1="6.3331" y1="18.9784" x2="12.0798" y2="6.65409" gradientUnits="userSpaceOnUse">
<stop offset="0.3233" stop-color="#9E2064"/>
<stop offset="0.6302" stop-color="#C92037"/>
<stop offset="0.7514" stop-color="#CD2335"/>
<stop offset="1" stop-color="#E97826"/>
</linearGradient>
<clipPath id="clip0_928_20283">
<rect width="20" height="20" fill="white"/>
</clipPath>
</defs>
</svg>
