<svg width="20" height="16" viewBox="0 0 20 16" fill="none" xmlns="http://www.w3.org/2000/svg">
<g clip-path="url(#clip0_928_20276)">
<path fill-rule="evenodd" clip-rule="evenodd" d="M10.0245 2.96138C11.2966 1.70744 12.7824 1.1372 14.5028 1.35811C16.2785 1.58614 17.7903 2.74164 18.3278 4.29905C18.7414 5.49744 18.5697 6.83961 18.0158 8.06353C17.1544 9.96713 14.609 12.673 9.99999 14.5647C5.39102 12.673 2.84553 9.96713 1.98413 8.06353C1.43029 6.83961 1.2586 5.49744 1.67219 4.29905C2.20968 2.74164 3.72152 1.58614 5.49719 1.35811C7.21761 1.13719 8.70346 1.70748 9.97557 2.96148C9.9779 2.96378 9.99999 2.98561 9.99999 2.98561C10 2.98563 10.0224 2.96345 10.0245 2.96138H10.0245ZM9.99998 1.18304C7.22149 -0.801968 2.8667 -0.28402 0.864206 2.69929C0.199324 3.68984 -0.050398 4.84148 0.00828484 5.98487C0.110081 7.96813 1.05059 9.70174 2.43207 11.1978C4.29226 13.2122 6.98157 14.7952 9.94117 15.9765C9.94529 15.9782 9.97946 15.9917 9.99998 16C10.018 15.9931 10.0495 15.9802 10.0592 15.9763C13.0035 14.795 15.7078 13.2119 17.5679 11.1978C18.9495 9.70181 19.8899 7.96813 19.9917 5.98486C20.0504 4.84148 19.8006 3.68983 19.1358 2.69929C17.1333 -0.284024 12.7785 -0.801972 9.99998 1.18303V1.18304Z" fill="white"/>
<path fill-rule="evenodd" clip-rule="evenodd" d="M9.92897 8.5052L8.66407 7.93448C8.22442 8.51802 7.90453 8.91296 6.98054 8.6825C6.25525 8.50159 6.04057 7.77801 6.013 7.17103C5.97534 6.34196 6.29377 5.38443 7.38164 5.43563C8.07678 5.46834 8.37297 5.84153 8.53126 6.177L9.91235 5.53255C9.23206 4.35118 7.63782 3.9494 6.28644 4.27863C4.84846 4.62895 4.12013 5.83303 4.14567 7.13157C4.17177 8.45893 4.87177 9.60555 6.37546 9.9048C7.10863 10.0507 7.90695 10.0168 8.58589 9.70694C9.11132 9.46714 9.69507 9.0043 9.92897 8.5052V8.5052ZM15.8916 8.5052L14.6267 7.93448C14.1871 8.51802 13.8672 8.91296 12.9432 8.6825C12.2179 8.50159 12.0032 7.77801 11.9757 7.17103C11.938 6.34196 12.2564 5.38443 13.3443 5.43563C14.0394 5.46834 14.3356 5.84153 14.4939 6.177L15.875 5.53255C15.1947 4.35118 13.6005 3.9494 12.2491 4.27863C10.8111 4.62895 10.0828 5.83303 10.1083 7.13157C10.1344 8.45893 10.8344 9.60555 12.3381 9.9048C13.0713 10.0507 13.8696 10.0168 14.5485 9.70694C15.074 9.46714 15.6577 9.0043 15.8916 8.5052V8.5052Z" fill="white"/>
</g>
<defs>
<clipPath id="clip0_928_20276">
<rect width="20" height="16" fill="white"/>
</clipPath>
</defs>
</svg>
