<svg width="20" height="16" viewBox="0 0 20 16" fill="none" xmlns="http://www.w3.org/2000/svg">
<g clip-path="url(#clip0_928_20340)">
<path d="M0 2.26297V1.75C0 1.41848 0.131696 1.10054 0.366117 0.866117C0.600537 0.631696 0.918479 0.5 1.25 0.5L18.75 0.5C19.0815 0.5 19.3995 0.631696 19.6339 0.866117C19.8683 1.10054 20 1.41848 20 1.75V2.26297L10 8.51297L0 2.26297ZM10.3313 9.78016C10.2319 9.84217 10.1171 9.87505 10 9.87505C9.88288 9.87505 9.76811 9.84217 9.66875 9.78016L0 3.73703V14.25C0 14.5815 0.131696 14.8995 0.366117 15.1339C0.600537 15.3683 0.918479 15.5 1.25 15.5H18.75C19.0815 15.5 19.3995 15.3683 19.6339 15.1339C19.8683 14.8995 20 14.5815 20 14.25V3.73703L10.3313 9.78016Z" fill="white"/>
</g>
<defs>
<clipPath id="clip0_928_20340">
<rect width="20" height="15" fill="white" transform="translate(0 0.5)"/>
</clipPath>
</defs>
</svg>
